<svg width="70" height="44" viewBox="0 0 70 44" fill="none" xmlns="http://www.w3.org/2000/svg">
<path d="M22.0127 37.9083L22.6003 36.167H13.5962V37.9083H13.6003L13.5962 39.2559L13.5952 39.5112V39.8404V43.9989H22.0106L22.5993 42.2545H15.7478L15.7488 40.8505H21.5594L22.0988 39.2559H15.7498L15.7529 37.9083H22.0127Z" fill="#EE0033"/>
<path d="M46.0211 36.1641H43.8675L43.8644 39.2591L38.0682 39.257L38.0764 36.1641H35.9228L35.9136 39.8405H35.9208L35.9218 43.999H38.0743L38.0733 41.0035H43.8644L43.8665 43.999H46.019L46.0211 36.1641Z" fill="#EE0033"/>
<path d="M5.79828 41.9447L2.2182 36.1649H0.00102574L0 43.9989H2.09719L2.09821 39.4486L4.81481 43.8809H6.67408L9.38658 39.4486L9.38555 43.9989H11.5391L11.5412 36.1649H9.3876L5.79828 41.9447Z" fill="#EE0033"/>
<path d="M55.0262 36.1649H52.6347L47.906 43.9989H55.6548L54.7903 42.5519H51.2297L53.7986 38.2006L57.2536 43.9989H59.7518L55.0262 36.1649Z" fill="#EE0033"/>
<path d="M34.3691 38.5206C34.3691 36.4808 32.6463 36.167 31.5459 36.167H25.3056L24.7149 37.9093H26.8869V37.9083H31.3746C31.6402 37.9083 32.1807 37.9258 32.1807 38.5862C32.1807 39.2538 31.67 39.2476 31.3418 39.2476H26.8931V39.2456H24.7149L24.7139 43.9999H26.8736V40.9869H31.5459C32.5847 40.9859 34.3691 40.9644 34.3691 38.5206Z" fill="#EE0033"/>
<path d="M59.4656 39.2446L65.0516 43.9989H68.2994L64.6824 40.9859H66.2976C67.3375 40.9859 69.1208 40.9633 69.1208 38.5206C69.1208 36.4808 67.398 36.167 66.2986 36.167H60.0583L59.4676 37.9093H61.6397V37.9083H66.1263C66.3919 37.9083 66.9324 37.9258 66.9324 38.5862C66.9324 39.2538 66.4217 39.2476 66.0935 39.2476H61.6438V39.2456H59.4656V39.2446Z" fill="#EE0033"/>
<path d="M58.2518 14.4332C58.2887 14.7337 58.3082 15.0382 58.3082 15.3438C58.3082 15.7592 58.2733 16.1704 58.2046 16.5755C57.3257 21.8159 50.8957 26.1774 42.2126 27.8316C41.2517 28.0151 40.2631 28.1649 39.253 28.2787C39.2273 28.2818 39.2038 28.2849 39.1791 28.2869C38.2121 28.3946 37.2245 28.4705 36.2195 28.5105C35.6452 28.533 35.0648 28.5453 34.4802 28.5453C33.8454 28.5453 33.2157 28.531 32.5933 28.5043V26.6933V24.5438V16.5755V14.4332V14.4137V11.3874V6.1439V5.14094V3.99441C31.7411 4.04056 30.9012 4.11748 30.0756 4.22516L29.6326 4.79534L28.0953 6.77767L26.6729 8.6113L23.5933 12.5811L20.7034 10.0296L18.8144 8.3621C18.1314 8.86973 17.5263 9.40813 17.0023 9.97524C16.75 10.248 16.5172 10.527 16.3019 10.8131C15.4363 11.9668 14.9143 13.181 14.7451 14.4342C14.7041 14.7357 14.6836 15.0393 14.6836 15.3449C14.6836 15.7592 14.7215 16.1704 14.7964 16.5765C15.0066 17.7159 15.5102 18.8214 16.3019 19.8766C16.8136 20.5586 17.434 21.2057 18.1581 21.8108C18.7898 22.3389 19.4994 22.8373 20.286 23.3008L22.3893 21.781C21.5905 21.3277 20.8757 20.8293 20.2573 20.294C18.9826 19.1906 18.1211 17.9281 17.7919 16.5755C17.6935 16.1725 17.6432 15.7612 17.6432 15.3438C17.6432 15.0362 17.6709 14.7326 17.7243 14.4332C17.8935 13.4805 18.3262 12.5708 18.9826 11.7248L22.0509 14.4332L24.0281 16.1786L25.3828 14.4332L26.6709 12.7729L29.6305 8.9569V13.5246V14.4332V16.5509L29.5967 16.5755H29.6305V24.2105V26.402V28.2705V30.4395C30.6048 30.541 31.5924 30.6118 32.5902 30.6507C33.2157 30.6764 33.8444 30.6887 34.4771 30.6887C35.0596 30.6887 35.6401 30.6784 36.2164 30.6569C37.2143 30.62 38.2029 30.5533 39.1761 30.4549C39.2007 30.4528 39.2253 30.4497 39.2499 30.4477C40.2529 30.3451 41.2404 30.2108 42.2096 30.0446C46.3414 29.336 50.1317 28.0592 53.2821 26.282C55.769 24.8801 57.7246 23.2414 59.0968 21.4108C60.2536 19.8684 60.9509 18.2481 61.1806 16.5765C61.237 16.1694 61.2647 15.7581 61.2647 15.3449C61.2647 15.0393 61.2493 14.7367 61.2186 14.4342C61.0391 12.6488 60.3264 10.9187 59.0958 9.27789C57.7226 7.44836 55.7669 5.80856 53.2811 4.40667C50.1307 2.63047 46.3403 1.35268 42.2085 0.644043V2.85506C51.0721 4.54409 57.5872 9.05125 58.2518 14.4332Z" fill="#EE0033"/>
<path d="M15.9468 26.4328C19.0224 28.1197 22.6876 29.3401 26.6717 30.0303V27.8172C23.428 27.1927 20.5001 26.1897 18.0625 24.9037C17.2472 24.473 16.4852 24.0115 15.7858 23.5213C13.0036 21.5749 11.1905 19.1844 10.7536 16.5755C10.6849 16.1704 10.65 15.7592 10.65 15.3438C10.65 15.0382 10.6695 14.7347 10.7064 14.4332C11.0008 12.0488 12.4426 9.83678 14.7275 7.96521C15.3418 7.4627 16.0176 6.98481 16.7467 6.53461C19.4162 4.88557 22.8209 3.61085 26.6717 2.8694C27.6316 2.68481 28.6202 2.53201 29.6314 2.41612C30.2846 2.34126 30.9461 2.28075 31.6157 2.23563C31.9398 2.2141 32.2639 2.19564 32.592 2.1823C33.2145 2.15564 33.8442 2.14128 34.479 2.14128C34.6256 2.14128 34.7713 2.14231 34.9169 2.14436C35.3538 2.14744 35.7875 2.15974 36.2183 2.17615V26.7004C37.2223 26.6512 38.2108 26.5579 39.1779 26.4235V16.5755H54.1608C54.2366 16.1694 54.2736 15.7581 54.2736 15.3438C54.2736 15.0392 54.253 14.7357 54.212 14.4332C54.0428 13.18 53.5208 11.9658 52.6553 10.812C51.6349 9.45221 50.1828 8.23492 48.3389 7.19402C46.5432 6.18183 44.4675 5.3891 42.2114 4.83942V7.12018C42.3263 7.15299 42.4391 7.18581 42.5529 7.21965C47.3113 8.65641 50.6791 11.3207 51.2329 14.4321H39.1779V0.233818C38.3114 0.146649 37.4325 0.0830673 36.5454 0.0451231C36.4357 0.0399955 36.327 0.0358929 36.2183 0.0317908C35.6419 0.0102549 35.0615 0 34.479 0C34.0985 0 33.7191 0.00410201 33.3417 0.0143572H33.3407C33.0894 0.0194848 32.8412 0.0276885 32.592 0.0379437C31.5932 0.0769134 30.6056 0.147674 29.6314 0.2492C28.6284 0.353803 27.6408 0.489173 26.6717 0.657358C22.5686 1.36804 18.8039 2.64071 15.673 4.40666C15.3992 4.56151 15.1326 4.71841 14.8711 4.87942C14.1388 5.3286 13.4579 5.79931 12.8313 6.29156C11.6499 7.21658 10.6552 8.21441 9.85833 9.27787C8.6277 10.9187 7.916 12.6487 7.73653 14.4342C7.70679 14.7357 7.69141 15.0392 7.69141 15.3448C7.69141 15.7591 7.72012 16.1694 7.7755 16.5765C8.00521 18.2481 8.70257 19.8694 9.85935 21.4108C10.8439 22.7234 12.1278 23.9377 13.6927 25.036C14.3101 25.4698 14.9716 25.8851 15.674 26.282C15.7633 26.3322 15.8545 26.3825 15.9468 26.4328Z" fill="#EE0033"/>
</svg>
