<svg width="45" height="45" viewBox="0 0 45 45" fill="none" xmlns="http://www.w3.org/2000/svg">
<rect width="45" height="45" rx="16" fill="url(#paint0_linear_510_25227)"/>
<path d="M34.0417 20.4384H29.9476C26.5901 20.4384 23.8559 17.7043 23.8559 14.3468V10.2526C23.8559 9.47344 23.2184 8.83594 22.4392 8.83594H16.4326C12.0692 8.83594 8.54175 11.6693 8.54175 16.7268V29.2784C8.54175 34.3359 12.0692 37.1693 16.4326 37.1693H27.5676C31.9309 37.1693 35.4584 34.3359 35.4584 29.2784V21.8551C35.4584 21.0759 34.8209 20.4384 34.0417 20.4384ZM22.3967 28.3576L19.5634 31.1909C19.4642 31.2901 19.3367 31.3751 19.2092 31.4176C19.0817 31.4743 18.9542 31.5026 18.8126 31.5026C18.6709 31.5026 18.5434 31.4743 18.4159 31.4176C18.3026 31.3751 18.1892 31.2901 18.1042 31.2051C18.0901 31.1909 18.0759 31.1909 18.0759 31.1768L15.2426 28.3434C14.8317 27.9326 14.8317 27.2526 15.2426 26.8418C15.6534 26.4309 16.3334 26.4309 16.7442 26.8418L17.7501 27.8759V21.9401C17.7501 21.3593 18.2317 20.8776 18.8126 20.8776C19.3934 20.8776 19.8751 21.3593 19.8751 21.9401V27.8759L20.8951 26.8559C21.3059 26.4451 21.9859 26.4451 22.3967 26.8559C22.8076 27.2668 22.8076 27.9468 22.3967 28.3576Z" fill="url(#paint1_linear_510_25227)"/>
<path d="M29.6925 18.4776C31.0383 18.4918 32.9083 18.4918 34.5091 18.4918C35.3166 18.4918 35.7416 17.5426 35.175 16.9759C33.135 14.9218 29.48 11.2243 27.3833 9.12761C26.8025 8.54678 25.7966 8.94344 25.7966 9.75094V14.6951C25.7966 16.7634 27.5533 18.4776 29.6925 18.4776Z" fill="url(#paint2_linear_510_25227)"/>
<defs>
<linearGradient id="paint0_linear_510_25227" x1="-14.5354" y1="14.5354" x2="14.5354" y2="59.5354" gradientUnits="userSpaceOnUse">
<stop stop-color="#FF8800"/>
<stop offset="1" stop-color="#E63535"/>
</linearGradient>
<linearGradient id="paint1_linear_510_25227" x1="22.0001" y1="8.83594" x2="22.0001" y2="37.1693" gradientUnits="userSpaceOnUse">
<stop stop-color="white"/>
<stop offset="1" stop-color="white" stop-opacity="0.8"/>
</linearGradient>
<linearGradient id="paint2_linear_510_25227" x1="30.6155" y1="8.85156" x2="30.6155" y2="18.4918" gradientUnits="userSpaceOnUse">
<stop stop-color="white"/>
<stop offset="1" stop-color="white" stop-opacity="0.8"/>
</linearGradient>
</defs>
</svg>
