<svg width="21" height="20" viewBox="0 0 21 20" fill="none" xmlns="http://www.w3.org/2000/svg">
<path fill-rule="evenodd" clip-rule="evenodd" d="M5.77308 6.95624L6.27558 12.9329C6.31224 13.3929 6.68808 13.7379 7.14724 13.7379H7.15058H16.2431H16.2447C16.6789 13.7379 17.0497 13.4146 17.1114 12.9854L17.9031 7.51957C17.9214 7.38957 17.8889 7.25957 17.8097 7.15457C17.7314 7.04874 17.6164 6.98041 17.4864 6.96207C17.3122 6.96874 10.0847 6.95874 5.77308 6.95624ZM7.14558 14.9879C6.04808 14.9879 5.11891 14.1312 5.02974 13.0354L4.26641 3.95707L3.01058 3.74041C2.66974 3.68041 2.44224 3.35791 2.50058 3.01707C2.56058 2.67624 2.88974 2.45457 3.22308 2.50791L4.95641 2.80791C5.23558 2.85707 5.44808 3.08874 5.47224 3.37207L5.66808 5.70624C17.5647 5.71124 17.6031 5.71707 17.6606 5.72374C18.1247 5.79124 18.5331 6.03374 18.8114 6.40707C19.0897 6.77957 19.2064 7.23874 19.1397 7.69874L18.3489 13.1637C18.1997 14.2037 17.2964 14.9879 16.2464 14.9879H16.2422H7.15224H7.14558Z" fill="#D64457"/>
<path fill-rule="evenodd" clip-rule="evenodd" d="M14.9064 10.0391H12.5964C12.2506 10.0391 11.9714 9.75906 11.9714 9.41406C11.9714 9.06906 12.2506 8.78906 12.5964 8.78906H14.9064C15.2514 8.78906 15.5314 9.06906 15.5314 9.41406C15.5314 9.75906 15.2514 10.0391 14.9064 10.0391Z" fill="#D64457"/>
<path fill-rule="evenodd" clip-rule="evenodd" d="M6.78717 17.25C7.03801 17.25 7.24051 17.4525 7.24051 17.7033C7.24051 17.9542 7.03801 18.1575 6.78717 18.1575C6.53551 18.1575 6.33301 17.9542 6.33301 17.7033C6.33301 17.4525 6.53551 17.25 6.78717 17.25Z" fill="#D64457"/>
<mask id="mask0_510_25338" style="mask-type:luminance" maskUnits="userSpaceOnUse" x="6" y="17" width="2" height="2">
<path fill-rule="evenodd" clip-rule="evenodd" d="M6.33252 17.7033C6.33252 17.955 6.53502 18.1583 6.78752 18.1583C7.03835 18.1583 7.24085 17.955 7.24085 17.7033C7.24085 17.4525 7.03835 17.25 6.78752 17.25C6.53502 17.25 6.33252 17.4525 6.33252 17.7033Z" fill="white"/>
</mask>
<g mask="url(#mask0_510_25338)">
<path fill-rule="evenodd" clip-rule="evenodd" d="M2.16675 22.3268H11.4076V13.0859H2.16675V22.3268Z" fill="#D64457"/>
</g>
<path fill-rule="evenodd" clip-rule="evenodd" d="M6.78634 17.5325C6.69217 17.5325 6.61551 17.6092 6.61551 17.7033C6.61551 17.8925 6.95801 17.8925 6.95801 17.7033C6.95801 17.6092 6.88051 17.5325 6.78634 17.5325ZM6.78634 18.7825C6.19134 18.7825 5.70801 18.2983 5.70801 17.7033C5.70801 17.1083 6.19134 16.625 6.78634 16.625C7.38134 16.625 7.86551 17.1083 7.86551 17.7033C7.86551 18.2983 7.38134 18.7825 6.78634 18.7825Z" fill="#D64457"/>
<path fill-rule="evenodd" clip-rule="evenodd" d="M16.1873 17.25C16.4382 17.25 16.6415 17.4525 16.6415 17.7033C16.6415 17.9542 16.4382 18.1575 16.1873 18.1575C15.9357 18.1575 15.7332 17.9542 15.7332 17.7033C15.7332 17.4525 15.9357 17.25 16.1873 17.25Z" fill="#D64457"/>
<mask id="mask1_510_25338" style="mask-type:luminance" maskUnits="userSpaceOnUse" x="15" y="17" width="2" height="2">
<path fill-rule="evenodd" clip-rule="evenodd" d="M15.7334 17.7033C15.7334 17.955 15.9359 18.1583 16.1876 18.1583C16.4376 18.1583 16.6417 17.955 16.6417 17.7033C16.6417 17.4525 16.4376 17.25 16.1876 17.25C15.9359 17.25 15.7334 17.4525 15.7334 17.7033Z" fill="white"/>
</mask>
<g mask="url(#mask1_510_25338)">
<path fill-rule="evenodd" clip-rule="evenodd" d="M11.5667 22.3268H20.8083V13.0859H11.5667V22.3268Z" fill="#D64457"/>
</g>
<path fill-rule="evenodd" clip-rule="evenodd" d="M16.1865 17.5325C16.0932 17.5325 16.0165 17.6092 16.0165 17.7033C16.0173 17.8942 16.359 17.8925 16.3582 17.7033C16.3582 17.6092 16.2807 17.5325 16.1865 17.5325ZM16.1865 18.7825C15.5915 18.7825 15.1082 18.2983 15.1082 17.7033C15.1082 17.1083 15.5915 16.625 16.1865 16.625C16.7823 16.625 17.2665 17.1083 17.2665 17.7033C17.2665 18.2983 16.7823 18.7825 16.1865 18.7825Z" fill="#D64457"/>
</svg>
