<svg xmlns="http://www.w3.org/2000/svg" width="24" height="24" viewBox="0 0 24 24" fill="none">
<path d="M9.55012 17.5734C9.41679 17.5734 9.29179 17.5524 9.17512 17.5104C9.05846 17.4684 8.95012 17.3978 8.85012 17.2984L4.55012 12.9984C4.36679 12.8151 4.27912 12.5774 4.28712 12.2854C4.29512 11.9934 4.39112 11.7561 4.57512 11.5734C4.75846 11.3901 4.99179 11.2984 5.27512 11.2984C5.55846 11.2984 5.79179 11.3901 5.97512 11.5734L9.55012 15.1484L18.0251 6.67344C18.2085 6.4901 18.4461 6.39844 18.7381 6.39844C19.0301 6.39844 19.2675 6.4901 19.4501 6.67344C19.6335 6.85677 19.7251 7.09444 19.7251 7.38644C19.7251 7.67844 19.6335 7.91577 19.4501 8.09844L10.2501 17.2984C10.1501 17.3984 10.0418 17.4694 9.92512 17.5114C9.80846 17.5534 9.68346 17.5741 9.55012 17.5734Z" fill="#00B63E"/>
</svg>