<svg width="33" height="26" viewBox="0 0 33 26" fill="none" xmlns="http://www.w3.org/2000/svg">
<path d="M13.66 7.56005L9.1 10.3334L7.02001 6.92008C6.26001 5.66674 6.66 4.01341 7.91334 3.25341C9.16667 2.49341 10.82 2.89339 11.58 4.14672L13.66 7.56005Z" stroke="#D64457" stroke-width="1.5" stroke-linecap="round" stroke-linejoin="round"/>
<path d="M16.2599 12.2134L12.0466 14.7734C9.59325 16.2668 8.84657 19.2801 10.0332 21.6801L12.7666 27.2534C13.6466 29.0534 15.7799 29.68 17.4866 28.6267L26.0599 23.4134C27.7799 22.3734 28.1932 20.2001 27.0066 18.5867L23.3132 13.6001C21.7132 11.4401 18.7133 10.72 16.2599 12.2134Z" stroke="#D64457" stroke-width="1.5" stroke-linecap="round" stroke-linejoin="round"/>
<path d="M14.8421 6.79721L8.00928 10.958L10.7831 15.5132L17.6159 11.3524L14.8421 6.79721Z" stroke="#D64457" stroke-width="1.5" stroke-linecap="round" stroke-linejoin="round"/>
<path d="M19.5801 22.4133L21.7801 26.0267" stroke="#D64457" stroke-width="1.5" stroke-linecap="round" stroke-linejoin="round"/>
<path d="M16.1667 24.4934L18.3667 28.1068" stroke="#D64457" stroke-width="1.5" stroke-linecap="round" stroke-linejoin="round"/>
<path d="M22.9934 20.3333L25.1934 23.9466" stroke="#D64457" stroke-width="1.5" stroke-linecap="round" stroke-linejoin="round"/>
</svg>
