<svg width="33" height="33" viewBox="0 0 33 33" fill="none" xmlns="http://www.w3.org/2000/svg">
<path d="M22.7667 25.8066H10.2334C9.67335 25.8066 9.04669 25.3666 8.86002 24.8333L3.34002 9.39327C2.55335 7.17994 3.47335 6.49994 5.36669 7.85994L10.5667 11.5799C11.4334 12.1799 12.42 11.8733 12.7934 10.8999L15.14 4.64661C15.8867 2.64661 17.1267 2.64661 17.8734 4.64661L20.22 10.8999C20.5934 11.8733 21.58 12.1799 22.4334 11.5799L27.3134 8.09994C29.3934 6.60661 30.3934 7.36661 29.54 9.77994L24.1534 24.8599C23.9534 25.3666 23.3267 25.8066 22.7667 25.8066Z" stroke="#D64457" stroke-width="1.5" stroke-linecap="round" stroke-linejoin="round"/>
<path d="M9.16675 29.8334H23.8334" stroke="#D64457" stroke-width="1.5" stroke-linecap="round" stroke-linejoin="round"/>
<path d="M13.1667 19.1666H19.8334" stroke="#D64457" stroke-width="1.5" stroke-linecap="round" stroke-linejoin="round"/>
</svg>
