<svg width="25" height="24" viewBox="0 0 25 24" fill="none" xmlns="http://www.w3.org/2000/svg">
<path d="M19.8374 16.0098C20.1595 15.7039 20.416 15.3356 20.5913 14.9274C20.7666 14.5193 20.857 14.0797 20.857 13.6355C20.857 13.1912 20.7666 12.7517 20.5913 12.3435C20.416 11.9353 20.1595 11.5671 19.8374 11.2612C19.178 10.6354 18.3036 10.2865 17.3946 10.2865C16.4855 10.2865 15.6111 10.6354 14.9517 11.2612L12.5003 13.7126L10.0488 11.2612C9.38947 10.6354 8.51506 10.2865 7.60599 10.2865C6.69691 10.2865 5.82251 10.6354 5.16313 11.2612C4.84101 11.5671 4.58451 11.9353 4.40923 12.3435C4.23395 12.7517 4.14355 13.1912 4.14355 13.6355C4.14355 14.0797 4.23395 14.5193 4.40923 14.9274C4.58451 15.3356 4.84101 15.7039 5.16313 16.0098L12.5003 23.1412L19.8374 16.0098ZM12.5003 7.71261C13.4096 7.71261 14.2817 7.35139 14.9246 6.70841C15.5676 6.06542 15.9288 5.19335 15.9288 4.28404C15.9288 3.37473 15.5676 2.50266 14.9246 1.85967C14.2817 1.21669 13.4096 0.855469 12.5003 0.855469C11.591 0.855469 10.7189 1.21669 10.0759 1.85967C9.43293 2.50266 9.0717 3.37473 9.0717 4.28404C9.0717 5.19335 9.43293 6.06542 10.0759 6.70841C10.7189 7.35139 11.591 7.71261 12.5003 7.71261Z" stroke="#A3A8AF" stroke-width="1.5" stroke-linecap="round" stroke-linejoin="round"/>
</svg>
