<svg xmlns="http://www.w3.org/2000/svg" width="28" height="28" viewBox="0 0 28 28" fill="none">
  <path
    d="M25.0833 18.082C25.41 18.082 25.6666 18.3387 25.6666 18.6654V19.832C25.6666 21.7687 24.1033 23.332 22.1666 23.332C22.1666 21.407 20.5916 19.832 18.6666 19.832C16.7416 19.832 15.1666 21.407 15.1666 23.332H12.8333C12.8333 21.407 11.2583 19.832 9.33331 19.832C7.40831 19.832 5.83331 21.407 5.83331 23.332C3.89665 23.332 2.33331 21.7687 2.33331 19.832V17.4987C2.33331 16.857 2.85831 16.332 3.49998 16.332H14.5833C16.1933 16.332 17.5 15.0254 17.5 13.4154V6.9987C17.5 6.35703 18.025 5.83203 18.6666 5.83203H19.6466C20.4866 5.83203 21.2566 6.28703 21.6766 7.01036L22.4233 8.31703C22.5283 8.5037 22.3883 8.7487 22.1666 8.7487C20.5566 8.7487 19.25 10.0554 19.25 11.6654V15.1654C19.25 16.7754 20.5566 18.082 22.1666 18.082H25.0833Z"
    fill="#D64457" />
  <path
    d="M9.33333 25.6667C10.622 25.6667 11.6667 24.622 11.6667 23.3333C11.6667 22.0447 10.622 21 9.33333 21C8.04467 21 7 22.0447 7 23.3333C7 24.622 8.04467 25.6667 9.33333 25.6667Z"
    fill="#D64457" />
  <path
    d="M18.6666 25.6667C19.9553 25.6667 21 24.622 21 23.3333C21 22.0447 19.9553 21 18.6666 21C17.378 21 16.3333 22.0447 16.3333 23.3333C16.3333 24.622 17.378 25.6667 18.6666 25.6667Z"
    fill="#D64457" />
  <path
    d="M25.6667 14.6183V16.3333H22.1667C21.525 16.3333 21 15.8083 21 15.1667V11.6667C21 11.025 21.525 10.5 22.1667 10.5H23.6717L25.3633 13.4633C25.5617 13.8133 25.6667 14.21 25.6667 14.6183Z"
    fill="#D64457" />
  <path
    d="M15.26 2.33203H6.63831C4.25831 2.33203 2.33331 4.25703 2.33331 6.63703V14.0804C2.33331 14.722 2.85831 15.247 3.49998 15.247H14.175C15.365 15.247 16.3333 14.2787 16.3333 13.0887V3.40536C16.3333 2.81036 15.855 2.33203 15.26 2.33203ZM11.7483 8.24703L9.30998 10.6037C9.13498 10.767 8.91331 10.8487 8.70331 10.8487C8.48165 10.8487 8.25998 10.767 8.09665 10.6037L6.91831 9.4837C6.56831 9.14537 6.55665 8.58536 6.89498 8.23536C7.22165 7.88537 7.78165 7.88537 8.13165 8.21203L8.70331 8.76037L10.535 6.98703C10.885 6.6487 11.4333 6.66037 11.7716 7.01037C12.11 7.36037 12.0983 7.9087 11.7483 8.24703Z"
    fill="#D64457" />
</svg>