<svg xmlns="http://www.w3.org/2000/svg" width="28" height="28" viewBox="0 0 28 28" fill="none">
  <path
    d="M16.0814 2.95813L17.5642 4.22163C17.7975 4.41996 18.0892 4.5413 18.3937 4.5658L20.3374 4.72096C21.0974 4.78176 21.811 5.11127 22.3502 5.65045C22.8894 6.18963 23.2189 6.90321 23.2797 7.6633L23.4349 9.60696C23.4594 9.91263 23.5795 10.202 23.779 10.4353L25.0425 11.9193C25.5374 12.4999 25.8092 13.2378 25.8092 14.0006C25.8092 14.7635 25.5374 15.5014 25.0425 16.082L23.779 17.5648C23.5807 17.7981 23.4594 18.0898 23.4349 18.3955L23.2797 20.338C23.2189 21.098 22.8894 21.8116 22.3502 22.3508C21.811 22.89 21.0974 23.2195 20.3374 23.2803L18.3937 23.4355C18.0883 23.4603 17.7984 23.5807 17.5654 23.7796L16.0814 25.0431C15.5008 25.538 14.7629 25.8099 14 25.8099C13.2372 25.8099 12.4992 25.538 11.9187 25.0431L10.4359 23.7796C10.2021 23.5803 9.91141 23.4598 9.60519 23.4355L7.66269 23.2803C6.9026 23.2195 6.18902 22.89 5.64984 22.3508C5.11066 21.8116 4.78115 21.098 4.72035 20.338L4.56519 18.3955C4.54082 18.0892 4.42037 17.7985 4.22102 17.5648L2.95752 16.082C2.46263 15.5014 2.1908 14.7635 2.1908 14.0006C2.1908 13.2378 2.46263 12.4999 2.95752 11.9193L4.22102 10.4365C4.41935 10.2031 4.54069 9.91146 4.56519 9.60696L4.72035 7.6633C4.78115 6.90321 5.11066 6.18963 5.64984 5.65045C6.18902 5.11127 6.9026 4.78176 7.66269 4.72096L9.60519 4.5658C9.91141 4.54143 10.2021 4.42098 10.4359 4.22163L11.9187 2.95813C12.4992 2.46324 13.2372 2.19141 14 2.19141C14.7629 2.19141 15.5008 2.46324 16.0814 2.95813ZM13.0539 4.2893L11.571 5.55396C11.0571 5.99179 10.4182 6.25634 9.74519 6.30996L7.80269 6.46513C7.45674 6.49235 7.13183 6.64205 6.88634 6.88732C6.64086 7.1326 6.49088 7.45737 6.46335 7.8033L6.30819 9.7458C6.25457 10.4188 5.99001 11.0577 5.55219 11.5716L4.28752 13.0545C4.06251 13.3184 3.93892 13.6538 3.93892 14.0006C3.93892 14.3474 4.06251 14.6829 4.28752 14.9468L5.55219 16.4296C5.98969 16.943 6.25452 17.5823 6.30819 18.2555L6.46335 20.198C6.49084 20.5437 6.64065 20.8683 6.8859 21.1136C7.13115 21.3588 7.45578 21.5086 7.80152 21.5361L9.74402 21.6913C10.417 21.7449 11.0559 22.0095 11.5699 22.4473L13.0527 23.712C13.3166 23.937 13.652 24.0606 13.9989 24.0606C14.3457 24.0606 14.6811 23.937 14.945 23.712L16.4279 22.4473C16.9418 22.0095 17.5807 21.7449 18.2537 21.6913L20.1962 21.5361C20.5419 21.5086 20.8666 21.3588 21.1118 21.1136C21.3571 20.8683 21.5069 20.5437 21.5344 20.198L21.6895 18.2555C21.7431 17.5825 22.0077 16.9435 22.4455 16.4296L23.7102 14.9468C23.9352 14.6829 24.0588 14.3474 24.0588 14.0006C24.0588 13.6538 23.9352 13.3184 23.7102 13.0545L22.4467 11.5716C22.0089 11.0577 21.7443 10.4188 21.6907 9.7458L21.5355 7.8033C21.508 7.45755 21.3582 7.13293 21.113 6.88768C20.8677 6.64243 20.5431 6.49262 20.1974 6.46513L18.2549 6.30996C17.5819 6.25634 16.9429 5.99179 16.429 5.55396L14.9462 4.2893C14.6823 4.06429 14.3468 3.9407 14 3.9407C13.6532 3.9407 13.3178 4.06429 13.0539 4.2893Z"
    fill="#D64457" />
  <path
    d="M11.0833 12.832C10.6192 12.832 10.1741 12.6477 9.84588 12.3195C9.51769 11.9913 9.33331 11.5462 9.33331 11.082C9.33331 10.6179 9.51769 10.1728 9.84588 9.84459C10.1741 9.51641 10.6192 9.33203 11.0833 9.33203C11.5474 9.33203 11.9926 9.51641 12.3207 9.84459C12.6489 10.1728 12.8333 10.6179 12.8333 11.082C12.8333 11.5462 12.6489 11.9913 12.3207 12.3195C11.9926 12.6477 11.5474 12.832 11.0833 12.832ZM16.9166 18.6654C16.4525 18.6654 16.0074 18.481 15.6792 18.1528C15.351 17.8246 15.1666 17.3795 15.1666 16.9154C15.1666 16.4512 15.351 16.0061 15.6792 15.6779C16.0074 15.3497 16.4525 15.1654 16.9166 15.1654C17.3808 15.1654 17.8259 15.3497 18.1541 15.6779C18.4823 16.0061 18.6666 16.4512 18.6666 16.9154C18.6666 17.3795 18.4823 17.8246 18.1541 18.1528C17.8259 18.481 17.3808 18.6654 16.9166 18.6654Z"
    fill="#D64457" />
  <path
    d="M17.5887 11.0595L11.7553 18.0595C11.6828 18.1509 11.5927 18.2269 11.4904 18.2829C11.3881 18.339 11.2756 18.3741 11.1596 18.386C11.0435 18.398 10.9262 18.3866 10.8146 18.3526C10.703 18.3185 10.5994 18.2625 10.5097 18.1878C10.4201 18.1131 10.3463 18.0213 10.2927 17.9176C10.2391 17.814 10.2068 17.7007 10.1976 17.5844C10.1884 17.4681 10.2026 17.3511 10.2393 17.2403C10.276 17.1296 10.3345 17.0273 10.4113 16.9395L16.2447 9.93949C16.3951 9.76757 16.6067 9.66128 16.8345 9.64333C17.0622 9.62538 17.2879 9.6972 17.4634 9.84343C17.6389 9.98967 17.7502 10.1987 17.7736 10.426C17.797 10.6532 17.7306 10.8806 17.5887 11.0595Z"
    fill="#D64457" />
</svg>