<svg width="33" height="32" viewBox="0 0 33 32" fill="none" xmlns="http://www.w3.org/2000/svg">
<path d="M11.1667 16.2666H20.5001" stroke="#D64457" stroke-width="1.5" stroke-miterlimit="10" stroke-linecap="round" stroke-linejoin="round"/>
<path d="M11.1667 21.6001H17.0067" stroke="#D64457" stroke-width="1.5" stroke-miterlimit="10" stroke-linecap="round" stroke-linejoin="round"/>
<path d="M13.8334 8.00008H19.1667C21.8334 8.00008 21.8334 6.66675 21.8334 5.33341C21.8334 2.66675 20.5001 2.66675 19.1667 2.66675H13.8334C12.5001 2.66675 11.1667 2.66675 11.1667 5.33341C11.1667 8.00008 12.5001 8.00008 13.8334 8.00008Z" stroke="#D64457" stroke-width="1.5" stroke-miterlimit="10" stroke-linecap="round" stroke-linejoin="round"/>
<path d="M21.8333 5.36011C26.2733 5.60011 28.5 7.24011 28.5 13.3334V21.3334C28.5 26.6668 27.1667 29.3334 20.5 29.3334H12.5C5.83333 29.3334 4.5 26.6668 4.5 21.3334V13.3334C4.5 7.25344 6.72667 5.60011 11.1667 5.36011" stroke="#D64457" stroke-width="1.5" stroke-miterlimit="10" stroke-linecap="round" stroke-linejoin="round"/>
</svg>
