<svg width="24" height="24" viewBox="0 0 24 24" fill="none" xmlns="http://www.w3.org/2000/svg">
<path d="M18.8644 14.9321C18.8644 11.8446 15.9781 11.1361 14.7459 10.8336L14.2865 10.7171C10.8172 9.82638 10.0951 9.64099 10.0951 8.41167C10.0951 7.05522 11.3852 6.57391 12.4898 6.57391C14.4005 6.57391 15.4044 7.30324 15.5534 8.80228H18.3669C18.2791 5.63993 15.6955 4.73046 13.9137 4.48012V3.1158C13.9137 2.86617 13.7111 2.66357 13.4617 2.66357H12.3307C12.0806 2.66357 11.8784 2.86614 11.8784 3.1158V4.42858C9.54697 4.66743 7.29121 6.01978 7.29121 8.68012C7.29121 11.3556 9.49569 12.162 11.5622 12.7077C11.8794 12.7923 12.1968 12.8702 12.5081 12.9464C14.335 13.3941 16.0608 13.8172 16.0608 15.3035C16.0608 17.162 13.7379 17.3064 13.0262 17.3064C10.9474 17.3064 9.6801 16.2921 9.60334 14.5829H6.79663C6.81615 15.8737 7.24288 16.9492 8.06629 17.7821C8.95234 18.6784 10.3083 19.2581 11.8786 19.4338V20.7198C11.8786 20.9696 12.081 21.172 12.3309 21.172H13.4618C13.7114 21.172 13.914 20.9695 13.914 20.7198V19.4441C16.9941 19.1487 18.8645 17.4764 18.8645 14.9321L18.8644 14.9321Z" fill="white"/>
</svg>
