<svg xmlns="http://www.w3.org/2000/svg" width="20" height="20" viewBox="0 0 20 20" fill="none">
  <path
    d="M16 12.6058C16 9.93673 13.369 9.32421 12.2458 9.06275L11.8272 8.96203C8.6648 8.19203 8.00661 8.03176 8.00661 6.96905C8.00661 5.79645 9.18251 5.38037 10.1894 5.38037C11.9311 5.38037 12.8461 6.01085 12.9819 7.30672H15.5465C15.4664 4.57297 13.1115 3.78676 11.4873 3.57035V2.39094C11.4873 2.17514 11.3027 2 11.0753 2H10.0444C9.81643 2 9.63215 2.17512 9.63215 2.39094V3.5258C7.50698 3.73228 5.45081 4.90134 5.45081 7.20112C5.45081 9.51402 7.46023 10.2111 9.34393 10.6828C9.63304 10.756 9.92231 10.8233 10.2061 10.8892C11.8713 11.2762 13.4444 11.6419 13.4444 12.9268C13.4444 14.5334 11.3271 14.6583 10.6783 14.6583C8.7835 14.6583 7.62832 13.7814 7.55836 12.3039H5C5.0178 13.4197 5.40676 14.3495 6.15731 15.0695C6.96496 15.8444 8.20098 16.3454 9.63227 16.4974V17.6091C9.63227 17.825 9.81679 18 10.0446 18H11.0754C11.3029 18 11.4876 17.8249 11.4876 17.6091V16.5062C14.2951 16.2509 16 14.8052 16 12.6058L16 12.6058Z"
    fill="#0070F4" />
</svg>