<svg width="80" height="80" viewBox="0 0 80 80" fill="none" xmlns="http://www.w3.org/2000/svg">
<path d="M40.4532 7.50302C22.1751 7.25614 7.25322 22.178 7.50009 40.4561C7.74384 57.9858 22.0173 72.2593 39.547 72.503C57.8282 72.753 72.747 57.8311 72.497 39.553C72.2563 22.0202 57.9829 7.74677 40.4532 7.50302ZM37.8298 37.5765L45.8845 28.3577C46.3208 27.8584 46.9377 27.5528 47.5993 27.5083C48.261 27.4637 48.9132 27.6838 49.4126 28.1202C49.9119 28.5566 50.2175 29.1734 50.262 29.8351C50.3066 30.4967 50.0865 31.149 49.6501 31.6483L41.5954 40.8671C41.3793 41.1143 41.1167 41.3166 40.8225 41.4624C40.5282 41.6081 40.2081 41.6945 39.8805 41.7165C39.5529 41.7386 39.2242 41.6959 38.913 41.5909C38.6019 41.4859 38.3145 41.3206 38.0673 41.1046C37.82 40.8885 37.6178 40.6259 37.472 40.3316C37.3263 40.0374 37.2399 39.7173 37.2178 39.3897C37.1958 39.0621 37.2385 38.7333 37.3435 38.4222C37.4485 38.1111 37.6137 37.8237 37.8298 37.5765ZM31.7579 51.7718C31.2891 52.2403 30.6535 52.5034 29.9907 52.5034C29.328 52.5034 28.6923 52.2403 28.2235 51.7718L20.7313 44.2718C20.4993 44.0395 20.3152 43.7638 20.1897 43.4604C20.0642 43.157 19.9997 42.8318 19.9998 42.5035C20 42.1751 20.0648 41.85 20.1906 41.5467C20.3163 41.2434 20.5006 40.9679 20.7329 40.7358C20.9652 40.5038 21.2409 40.3197 21.5443 40.1942C21.8477 40.0687 22.1729 40.0042 22.5012 40.0043C22.8295 40.0044 23.1546 40.0693 23.4579 40.195C23.7612 40.3208 24.0368 40.5051 24.2688 40.7374L31.7688 48.2374C32.2359 48.7076 32.4971 49.3441 32.495 50.0068C32.493 50.6696 32.2278 51.3044 31.7579 51.7718ZM59.3829 31.6483L41.9017 51.6483C41.6764 51.9064 41.4006 52.1154 41.0912 52.2625C40.7818 52.4095 40.4455 52.4914 40.1032 52.503H40.0188C39.6903 52.5031 39.365 52.4384 39.0615 52.3126C38.758 52.1869 38.4823 52.0026 38.2501 51.7702L30.7595 44.2702C30.2908 43.8011 30.0276 43.165 30.0279 42.5019C30.0282 41.8388 30.2919 41.203 30.761 40.7343C31.2301 40.2656 31.8662 40.0024 32.5293 40.0027C33.1924 40.003 33.8283 40.2667 34.297 40.7358L38.9532 45.3968C39.0743 45.5178 39.2189 45.6128 39.3781 45.6756C39.5374 45.7385 39.7078 45.768 39.8789 45.7623C40.0501 45.7566 40.2182 45.7158 40.3729 45.6424C40.5275 45.5691 40.6655 45.4647 40.7782 45.3358L55.622 28.3577C56.0583 27.8584 56.6752 27.5528 57.3368 27.5083C57.9985 27.4637 58.6507 27.6838 59.1501 28.1202C59.6494 28.5566 59.955 29.1734 59.9995 29.8351C60.0441 30.4967 59.824 31.149 59.3876 31.6483H59.3829Z" fill="#14BC25"/>
</svg>
