<svg width="14" height="12" viewBox="0 0 14 12" fill="none" xmlns="http://www.w3.org/2000/svg">
  <path
    d="M3.41321 4.54761L7.47375 1.04077C7.81982 0.740845 8.39661 0.994629 8.39661 1.47913V3.37097C11.3728 3.62476 13.5646 4.57068 13.5646 7.61609C13.5646 9.02344 12.6417 10.4308 11.6266 11.1691C11.3267 11.3998 10.8652 11.0999 10.9806 10.7307C11.8804 7.89294 10.8883 6.83167 8.39661 6.53174V8.46973C8.39661 8.95422 7.81982 9.20801 7.47375 8.90808L3.41321 5.40125C3.15942 5.17053 3.15942 4.77832 3.41321 4.54761ZM0.460083 5.40125C0.206299 5.17053 0.206299 4.77832 0.460083 4.54761L4.52063 1.04077C4.8667 0.740845 5.44348 0.994629 5.44348 1.47913V1.8252L2.92871 3.9939C2.65186 4.22461 2.49036 4.59375 2.49036 4.96289C2.49036 4.98596 2.46729 4.98596 2.46729 4.98596C2.46729 5.3551 2.65186 5.72424 2.92871 5.95496L5.44348 8.12366V8.46973C5.44348 8.95422 4.8667 9.20801 4.52063 8.90808L0.460083 5.40125Z"
    fill="white" />
</svg>