<svg xmlns="http://www.w3.org/2000/svg" width="28" height="28" viewBox="0 0 28 28" fill="none">
  <path
    d="M24.7447 20.8035L23.7637 20.6097C23.6547 20.5855 23.5578 20.5128 23.5214 20.4038C23.4851 20.319 23.4488 20.2221 23.4124 20.1373C23.364 20.0404 23.3761 19.9192 23.4367 19.8223L23.9938 18.9865C24.0786 18.8533 24.0665 18.6837 23.9575 18.5747L23.4245 18.0417C23.3155 17.9327 23.146 17.9206 23.0127 18.0054L22.177 18.5626C22.0801 18.6231 21.959 18.6353 21.8621 18.5868C21.7773 18.5505 21.6926 18.5141 21.5957 18.4778C21.4867 18.4415 21.414 18.3445 21.3898 18.2355L21.196 17.2544C21.1717 17.109 21.0385 17 20.8811 17H20.118C19.9606 17 19.8273 17.109 19.8031 17.2544L19.6093 18.2355C19.5851 18.3445 19.5124 18.4415 19.4034 18.4778C19.3186 18.5141 19.2217 18.5505 19.137 18.5868C19.0401 18.6353 18.9189 18.6231 18.8221 18.5626L17.9863 18.0054C17.8531 17.9206 17.6835 17.9327 17.5745 18.0417L17.0416 18.5747C16.9326 18.6837 16.9205 18.8533 17.0053 18.9865L17.5624 19.8223C17.623 19.9192 17.6351 20.0404 17.5866 20.1373C17.5503 20.2221 17.514 20.3069 17.4776 20.4038C17.4413 20.5128 17.3444 20.5855 17.2354 20.6097L16.2543 20.8035C16.109 20.8277 16 20.961 16 21.1184V21.8816C16 22.039 16.109 22.1723 16.2543 22.1965L17.2354 22.3903C17.3444 22.4145 17.4413 22.4872 17.4776 22.5962C17.514 22.681 17.5503 22.7779 17.5866 22.8627C17.6351 22.9596 17.623 23.0808 17.5624 23.1777L17.0053 24.0135C16.9205 24.1467 16.9326 24.3163 17.0416 24.4253L17.5745 24.9583C17.6835 25.0673 17.8531 25.0794 17.9863 24.9946L18.8221 24.4374C18.9189 24.3768 19.0401 24.3647 19.137 24.4132C19.2217 24.4495 19.3065 24.4859 19.4034 24.5222C19.5124 24.5585 19.5851 24.6555 19.6093 24.7645L19.8031 25.7456C19.8273 25.891 19.9606 26 20.118 26H20.8811C21.0385 26 21.1717 25.891 21.196 25.7456L21.3898 24.7645C21.414 24.6555 21.4867 24.5585 21.5957 24.5222C21.6804 24.4859 21.7773 24.4495 21.8621 24.4132C21.959 24.3647 22.0801 24.3768 22.177 24.4374L23.0127 24.9946C23.146 25.0794 23.3155 25.0673 23.4245 24.9583L23.9575 24.4253C24.0665 24.3163 24.0786 24.1467 23.9938 24.0135L23.4367 23.1777C23.3761 23.0808 23.364 22.9596 23.4124 22.8627C23.4488 22.7779 23.4851 22.6931 23.5214 22.5962C23.5578 22.4872 23.6547 22.4145 23.7637 22.3903L24.7447 22.1965C24.8901 22.1723 24.9991 22.039 24.9991 21.8816V21.1184C25.0112 20.9731 24.9022 20.8398 24.7447 20.8035ZM21.8621 22.8748C21.1112 23.6258 19.8758 23.6258 19.1248 22.8748C18.3739 22.1238 18.3739 20.8883 19.1248 20.1373C19.8758 19.3863 21.1112 19.3863 21.8621 20.1373C22.2255 20.5007 22.4314 20.9973 22.4314 21.5061C22.4314 22.0148 22.2255 22.5114 21.8621 22.8748Z"
    fill="#D64457" />
  <path
    d="M16.7742 17.6752C16.787 17.6511 16.7231 17.6391 16.6976 17.615C16.4677 17.4105 16.289 17.1699 16.1485 16.9053C16.0336 16.6767 15.9697 16.4241 15.9442 16.1714C15.9314 15.9308 15.9442 15.6782 15.9953 15.4376C16.0208 15.1248 16.1613 14.8241 16.3783 14.5835C16.621 14.3789 16.8636 14.1744 17.1189 13.9699C17.2594 13.8376 17.3871 13.6812 17.4765 13.5008C17.5786 13.2962 17.668 13.1038 17.7446 12.8872C17.8212 12.6346 17.9106 12.382 17.9745 12.1173C18.1405 12.0692 18.2937 11.9729 18.4214 11.8526C18.5618 11.7203 18.6895 11.5639 18.7789 11.3835C18.8938 11.1308 18.9577 10.8541 18.9832 10.5774C19.0088 10.3609 19.0088 10.1444 18.9577 9.92782C18.9321 9.78346 18.8811 9.6391 18.8172 9.49474C18.7534 9.37444 18.664 9.26617 18.5491 9.18195C18.5491 8.53233 18.5108 7.88271 18.4214 7.24511C18.332 6.65564 18.2043 6.06617 18.0255 5.48872C17.834 4.87519 17.5276 4.30977 17.1189 3.80451C16.9146 3.55188 16.672 3.32331 16.3911 3.13083C16.0591 2.89023 15.7016 2.69774 15.3313 2.52932C14.9227 2.34887 14.4885 2.20451 14.0544 2.10827C13.6075 2.06015 13.1478 2 12.6881 2C12.305 2 11.9347 2.02406 11.5517 2.08421C11.143 2.14436 10.7472 2.25263 10.3769 2.40902C9.9683 2.57744 9.58523 2.80602 9.22769 3.07068C8.83185 3.38346 8.48709 3.74436 8.20617 4.15338C7.86141 4.63459 7.60603 5.16391 7.4528 5.72932C7.29957 6.27068 7.18465 6.82406 7.10804 7.37744C7.03142 7.97895 6.99312 8.59248 7.00589 9.19398C6.86543 9.33835 6.76327 9.50677 6.68666 9.69925C6.62281 9.8797 6.57174 10.0722 6.55897 10.2767C6.53343 10.5293 6.57174 10.782 6.66112 11.0105C6.7122 11.2271 6.81435 11.4436 6.94204 11.6361C7.03142 11.7564 7.13357 11.8767 7.26127 11.9729C7.36342 12.0451 7.47834 12.1053 7.59326 12.1414C7.66987 12.394 7.74649 12.6466 7.8231 12.9113L8.09125 13.5248C8.16787 13.6932 8.28279 13.8617 8.42325 13.994C8.67863 14.1985 8.93401 14.4271 9.16385 14.6556C9.39369 14.8962 9.53415 15.209 9.54692 15.5338C9.57246 15.7865 9.57246 16.015 9.57246 16.2316C9.57246 16.4361 9.53415 16.6406 9.44477 16.8331C9.35538 17.0496 9.22769 17.2421 9.0617 17.4105C8.84462 17.6391 8.57647 17.8436 8.29556 18.012C7.84864 18.2887 7.33788 18.5053 6.81435 18.6376C6.26528 18.782 5.72898 18.9383 5.20545 19.1308C4.70746 19.2992 4.24778 19.5519 3.85194 19.8647C3.44333 20.2135 3.18795 20.6947 3.14964 21.212C2.99641 22.0541 2.95811 22.8962 3.04749 23.7504C3.04749 24.1714 3.17518 24.5805 3.41779 24.9173C3.62209 25.0376 3.86471 25.1218 4.10732 25.1579C4.47762 25.2421 4.92453 25.3143 5.44806 25.3985C5.97159 25.4827 6.55897 25.5549 7.21019 25.6271C7.86141 25.6992 8.51263 25.7594 9.15108 25.8195C9.8023 25.8797 10.428 25.9158 11.0537 25.9519C11.6666 25.988 12.2029 26 12.6626 26C13.1222 26 13.6713 25.988 14.297 25.9519C14.961 25.9158 15.6122 25.8797 16.2762 25.8195C16.5316 25.7955 17.0296 25.7474 17.0296 25.7474C15.6505 24.0872 14.4885 20.6827 16.7742 17.6752Z"
    fill="#D64457" />
</svg>