<svg width="48" height="64" viewBox="0 0 48 64" fill="none" xmlns="http://www.w3.org/2000/svg">
<g clip-path="url(#clip0_3900_32695)">
<g filter="url(#filter0_f_3900_32695)">
<ellipse cx="24" cy="58" rx="8" ry="4" fill="black" fill-opacity="0.12"/>
</g>
<mask id="path-2-outside-1_3900_32695" maskUnits="userSpaceOnUse" x="2" y="2" width="44" height="56" fill="black">
<rect fill="white" x="2" y="2" width="44" height="56"/>
<path fill-rule="evenodd" clip-rule="evenodd" d="M35.8319 40.1264C40.7852 36.486 44 30.6185 44 24C44 12.9543 35.0457 4 24 4C12.9543 4 4 12.9543 4 24C4 30.6184 7.21483 36.486 12.1681 40.1264C15.9322 42.9627 21.2379 47.437 22.4575 54.639C22.5867 55.4019 23.2263 55.9939 24 55.9939C24.7737 55.9939 25.4133 55.4019 25.5425 54.639C26.7621 47.437 32.0678 42.9627 35.8319 40.1264Z"/>
</mask>
<path fill-rule="evenodd" clip-rule="evenodd" d="M35.8319 40.1264C40.7852 36.486 44 30.6185 44 24C44 12.9543 35.0457 4 24 4C12.9543 4 4 12.9543 4 24C4 30.6184 7.21483 36.486 12.1681 40.1264C15.9322 42.9627 21.2379 47.437 22.4575 54.639C22.5867 55.4019 23.2263 55.9939 24 55.9939C24.7737 55.9939 25.4133 55.4019 25.5425 54.639C26.7621 47.437 32.0678 42.9627 35.8319 40.1264Z" fill="#EA352B"/>
<path d="M35.8319 40.1264L34.6475 38.5148L34.6378 38.5219L34.6283 38.5291L35.8319 40.1264ZM12.1681 40.1264L13.3717 38.5291L13.3622 38.5219L13.3525 38.5148L12.1681 40.1264ZM22.4575 54.639L20.4856 54.973H20.4856L22.4575 54.639ZM25.5425 54.639L27.5144 54.973H27.5144L25.5425 54.639ZM37.0163 41.738C42.4603 37.737 46 31.2817 46 24H42C42 29.9552 39.1101 35.2351 34.6475 38.5148L37.0163 41.738ZM46 24C46 11.8497 36.1503 2 24 2V6C33.9411 6 42 14.0589 42 24H46ZM24 2C11.8497 2 2 11.8497 2 24H6C6 14.0589 14.0589 6 24 6V2ZM2 24C2 31.2817 5.53973 37.737 10.9837 41.738L13.3525 38.5148C8.88993 35.2351 6 29.9552 6 24H2ZM24.4295 54.3051C23.0691 46.2717 17.1638 41.3865 13.3717 38.5291L10.9645 41.7237C14.7005 44.5388 19.4068 48.6022 20.4856 54.973L24.4295 54.3051ZM24 53.9939C24.1372 53.9939 24.2503 54.0493 24.3186 54.1102C24.3824 54.1671 24.4178 54.236 24.4295 54.3051L20.4856 54.973C20.7617 56.6035 22.1578 57.9939 24 57.9939V53.9939ZM23.5705 54.3051C23.5822 54.236 23.6176 54.1671 23.6814 54.1102C23.7497 54.0493 23.8628 53.9939 24 53.9939V57.9939C25.8422 57.9939 27.2383 56.6035 27.5144 54.973L23.5705 54.3051ZM34.6283 38.5291C30.8361 41.3865 24.9309 46.2717 23.5705 54.3051L27.5144 54.973C28.5932 48.6022 33.2995 44.5388 37.0355 41.7237L34.6283 38.5291Z" fill="url(#paint0_linear_3900_32695)" mask="url(#path-2-outside-1_3900_32695)"/>
</g>
<circle cx="24" cy="24" r="8" fill="black" fill-opacity="0.4"/>
<defs>
<filter id="filter0_f_3900_32695" x="12" y="50" width="24" height="16" filterUnits="userSpaceOnUse" color-interpolation-filters="sRGB">
<feFlood flood-opacity="0" result="BackgroundImageFix"/>
<feBlend mode="normal" in="SourceGraphic" in2="BackgroundImageFix" result="shape"/>
<feGaussianBlur stdDeviation="2" result="effect1_foregroundBlur_3900_32695"/>
</filter>
<linearGradient id="paint0_linear_3900_32695" x1="24" y1="4" x2="24" y2="55.9939" gradientUnits="userSpaceOnUse">
<stop stop-color="white"/>
<stop offset="1" stop-color="white" stop-opacity="0.35"/>
</linearGradient>
<clipPath id="clip0_3900_32695">
<rect width="48" height="64" fill="white"/>
</clipPath>
</defs>
</svg>
