<svg xmlns="http://www.w3.org/2000/svg" width="18" height="20" viewBox="0 0 18 20" fill="none">
  <g opacity="0.5">
    <path d="M12.0927 4.10393C11.6372 4.10349 11.2004 3.92231 10.8783 3.60018C10.5561 3.27804 10.3749 2.84126 10.3745 2.38569V0H2.69661C2.1019 0 1.53153 0.236256 1.11101 0.656782C0.69048 1.07731 0.454224 1.64765 0.454224 2.24237V15.7599C0.454224 16.3546 0.69048 16.925 1.11101 17.3455C1.53153 17.7661 2.1019 18.0023 2.69661 18.0023H11.9127C12.5075 18.0023 13.0778 17.7661 13.4983 17.3455C13.9189 16.925 14.1551 16.3546 14.1551 15.7599V4.10393H12.0927Z" fill="white"/>
  </g>
  <path d="M14.1551 4.10393H12.0928C11.6372 4.10349 11.2004 3.92231 10.8783 3.60018C10.5561 3.27804 10.375 2.84126 10.3745 2.38569V0L14.1551 4.10393Z" fill="white"/>
  <path d="M15.7818 14.2168H5.36243C4.62333 14.2168 4.02417 14.816 4.02417 15.5551V18.6615C4.02417 19.4006 4.62333 19.9998 5.36243 19.9998H15.7818C16.5209 19.9998 17.1201 19.4006 17.1201 18.6615V15.5551C17.1201 14.816 16.5209 14.2168 15.7818 14.2168Z" fill="white"/>
  <path d="M7.73953 17.7803V18.3861H7.11206V17.7803H7.73953Z" fill="#D64457"/>
  <path d="M9.57524 18.3856L9.04779 17.6056L8.59365 18.3856H7.89951L8.70029 17.0956L7.87451 15.8799H8.59365L9.10778 16.6348L9.55109 15.8799H10.2419L9.45192 17.1415L10.2952 18.3856H9.57524Z" fill="#D64457"/>
  <path d="M12.2284 18.0467C12.1565 18.1618 12.0533 18.254 11.9309 18.3126C11.7819 18.3823 11.6187 18.4163 11.4543 18.4117C11.2062 18.4221 10.9617 18.3497 10.7593 18.2059C10.6698 18.1387 10.5965 18.0522 10.545 17.9528C10.4935 17.8534 10.4651 17.7437 10.4618 17.6318H11.1068C11.1114 17.7162 11.1474 17.7958 11.2076 17.8551C11.2676 17.911 11.3473 17.941 11.4293 17.9384C11.4627 17.9404 11.4962 17.9357 11.5278 17.9247C11.5594 17.9137 11.5885 17.8965 11.6134 17.8742C11.6357 17.8527 11.6531 17.8267 11.6648 17.798C11.6764 17.7693 11.6819 17.7385 11.6809 17.7076C11.6818 17.6782 11.6766 17.649 11.6659 17.6216C11.6552 17.5943 11.639 17.5694 11.6184 17.5484C11.5743 17.5038 11.522 17.4681 11.4643 17.4434C11.4037 17.4168 11.3187 17.3843 11.2093 17.3459C11.0765 17.3022 10.9468 17.2496 10.821 17.1885C10.7176 17.1352 10.6289 17.0574 10.5627 16.9618C10.4858 16.8461 10.4478 16.7089 10.4543 16.5702C10.4513 16.4327 10.4909 16.2976 10.5677 16.1835C10.6465 16.072 10.7555 15.9853 10.8818 15.9335C11.0275 15.8743 11.1838 15.8459 11.341 15.8502C11.5796 15.837 11.8153 15.9075 12.0076 16.0494C12.0894 16.1159 12.1565 16.1989 12.2044 16.2929C12.2523 16.3868 12.2801 16.4898 12.2859 16.5951H11.6301C11.6228 16.5214 11.5911 16.4522 11.5401 16.3985C11.514 16.3735 11.4832 16.3541 11.4493 16.3415C11.4155 16.3289 11.3795 16.3233 11.3435 16.3252C11.281 16.3223 11.2196 16.3425 11.171 16.3818C11.1485 16.4031 11.1311 16.4291 11.1198 16.4579C11.1086 16.4867 11.1039 16.5176 11.106 16.5485C11.1047 16.6045 11.1256 16.6587 11.1643 16.6993C11.2058 16.7426 11.2557 16.7769 11.3109 16.8002C11.3701 16.826 11.4551 16.8593 11.5659 16.8993C11.7011 16.9434 11.8329 16.9974 11.9601 17.061C12.064 17.117 12.1535 17.1963 12.2217 17.2926C12.2995 17.4102 12.338 17.5493 12.3317 17.6901C12.3306 17.8162 12.2949 17.9396 12.2284 18.0467Z" fill="#D64457"/>
  <path d="M13.2727 17.9214H14.0843V18.3856H12.6677V15.8799H13.2744L13.2727 17.9214Z" fill="#D64457"/>
  <path d="M10.3611 12.5694H4.25145C3.72231 12.5694 3.2915 12.0427 3.2915 11.3944V6.96219C3.2915 6.31473 3.72231 5.78809 4.25145 5.78809H10.3636C10.8919 5.78809 11.3227 6.31473 11.3227 6.96219V11.3944C11.3202 12.0427 10.8894 12.5694 10.3611 12.5694ZM4.25145 6.38805C3.9923 6.38805 3.78232 6.64554 3.78232 6.96219V11.3944C3.78232 11.7111 3.9923 11.9686 4.25145 11.9686H10.3636C10.6219 11.9686 10.8319 11.7111 10.8319 11.3944V6.96219C10.8319 6.64554 10.6219 6.38805 10.3636 6.38805H4.25145Z" fill="white"/>
  <path d="M11.0754 9.90039H3.53503V10.5012H11.0754V9.90039Z" fill="white"/>
  <path d="M11.0754 7.84082H3.53503V8.44162H11.0754V7.84082Z" fill="white"/>
  <path d="M9.14364 6.08789H8.54285V12.2684H9.14364V6.08789Z" fill="white"/>
  <path d="M6.06637 6.08789H5.46558V12.2684H6.06637V6.08789Z" fill="white"/>
</svg>