<svg width="17" height="16" viewBox="0 0 17 16" fill="none" xmlns="http://www.w3.org/2000/svg">
<path d="M13.8332 8.00004V12C13.8332 13.4734 12.6398 14.6667 11.1665 14.6667H5.83317C4.35984 14.6667 3.1665 13.4734 3.1665 12V8.00004C3.1665 7.63337 3.4665 7.33337 3.83317 7.33337H5.1465C5.51317 7.33337 5.81317 7.63337 5.81317 8.00004V10.0934C5.81317 10.5867 6.0865 11.04 6.51984 11.2734C6.71317 11.38 6.9265 11.4334 7.1465 11.4334C7.39984 11.4334 7.65317 11.36 7.87317 11.2134L8.5065 10.8L9.09317 11.1934C9.49984 11.4667 10.0198 11.5 10.4532 11.2667C10.8932 11.0334 11.1665 10.5867 11.1665 10.0867V8.00004C11.1665 7.63337 11.4665 7.33337 11.8332 7.33337H13.1665C13.5332 7.33337 13.8332 7.63337 13.8332 8.00004Z" fill="#FF1A88"/>
<path d="M14.8332 4.66671V5.33337C14.8332 6.06671 14.4798 6.66671 13.4998 6.66671H3.49984C2.47984 6.66671 2.1665 6.06671 2.1665 5.33337V4.66671C2.1665 3.93337 2.47984 3.33337 3.49984 3.33337H13.4998C14.4798 3.33337 14.8332 3.93337 14.8332 4.66671Z" fill="#FF1A88"/>
<path d="M8.26018 3.33329H4.58018C4.35352 3.08663 4.36018 2.70663 4.60018 2.46663L5.54685 1.51996C5.79352 1.27329 6.20018 1.27329 6.44685 1.51996L8.26018 3.33329Z" fill="#FF1A88"/>
<path d="M12.4134 3.33329H8.7334L10.5467 1.51996C10.7934 1.27329 11.2001 1.27329 11.4467 1.51996L12.3934 2.46663C12.6334 2.70663 12.6401 3.08663 12.4134 3.33329Z" fill="#FF1A88"/>
<path d="M9.8133 7.33337C10.18 7.33337 10.48 7.63337 10.48 8.00004V10.0867C10.48 10.62 9.88663 10.94 9.44663 10.64L8.84663 10.24C8.62663 10.0934 8.33996 10.0934 8.11329 10.24L7.48663 10.6534C7.04663 10.9467 6.45996 10.6267 6.45996 10.1V8.00004C6.45996 7.63337 6.75996 7.33337 7.12663 7.33337H9.8133Z" fill="#FF1A88"/>
</svg>
