<svg width="33" height="33" viewBox="0 0 33 33" fill="none" xmlns="http://www.w3.org/2000/svg">
<path d="M27.1265 13.8334H5.79321V24.5C5.79321 28.5 7.12655 29.8334 11.1265 29.8334H21.7932C25.7932 29.8334 27.1265 28.5 27.1265 24.5V13.8334Z" stroke="#D64457" stroke-width="1.5" stroke-miterlimit="10" stroke-linecap="round" stroke-linejoin="round"/>
<path d="M29.1666 9.83329V11.1666C29.1666 12.6333 28.4599 13.8333 26.4999 13.8333H6.49992C4.45992 13.8333 3.83325 12.6333 3.83325 11.1666V9.83329C3.83325 8.36663 4.45992 7.16663 6.49992 7.16663H26.4999C28.4599 7.16663 29.1666 8.36663 29.1666 9.83329Z" stroke="#D64457" stroke-width="1.5" stroke-miterlimit="10" stroke-linecap="round" stroke-linejoin="round"/>
<path d="M16.0201 7.16671H8.66012C8.20679 6.67338 8.22012 5.91338 8.70012 5.43338L10.5935 3.54004C11.0868 3.04671 11.9001 3.04671 12.3935 3.54004L16.0201 7.16671Z" stroke="#D64457" stroke-width="1.5" stroke-miterlimit="10" stroke-linecap="round" stroke-linejoin="round"/>
<path d="M24.3266 7.16671H16.9666L20.5932 3.54004C21.0866 3.04671 21.8999 3.04671 22.3932 3.54004L24.2866 5.43338C24.7666 5.91338 24.7799 6.67338 24.3266 7.16671Z" stroke="#D64457" stroke-width="1.5" stroke-miterlimit="10" stroke-linecap="round" stroke-linejoin="round"/>
<path d="M12.4199 13.8334V20.6867C12.4199 21.7534 13.5933 22.38 14.4866 21.8067L15.7399 20.98C16.1933 20.6867 16.7666 20.6867 17.2066 20.98L18.3933 21.78C19.2733 22.3667 20.4599 21.74 20.4599 20.6734V13.8334H12.4199Z" stroke="#D64457" stroke-width="1.5" stroke-miterlimit="10" stroke-linecap="round" stroke-linejoin="round"/>
</svg>
