<svg width="33" height="32" viewBox="0 0 33 32" fill="none" xmlns="http://www.w3.org/2000/svg">
<path d="M11.8333 19C11.8333 21.56 13.9399 23.6667 16.4999 23.6667C19.0599 23.6667 21.1666 21.56 21.1666 19" stroke="#D64457" stroke-width="1.5" stroke-miterlimit="10" stroke-linecap="round" stroke-linejoin="round"/>
<path d="M12.2466 2.66675L7.41992 7.50675" stroke="#D64457" stroke-width="1.5" stroke-miterlimit="10" stroke-linecap="round" stroke-linejoin="round"/>
<path d="M20.7534 2.66675L25.5801 7.50675" stroke="#D64457" stroke-width="1.5" stroke-miterlimit="10" stroke-linecap="round" stroke-linejoin="round"/>
<path d="M3.16675 10.4667C3.16675 8.00005 4.48675 7.80005 6.12675 7.80005H26.8734C28.5134 7.80005 29.8334 8.00005 29.8334 10.4667C29.8334 13.3334 28.5134 13.1334 26.8734 13.1334H6.12675C4.48675 13.1334 3.16675 13.3334 3.16675 10.4667Z" stroke="#D64457" stroke-width="1.5"/>
<path d="M5.16675 13.3333L7.04675 24.8533C7.47341 27.4399 8.50008 29.3333 12.3134 29.3333H20.3534C24.5001 29.3333 25.1134 27.5199 25.5934 25.0133L27.8334 13.3333" stroke="#D64457" stroke-width="1.5" stroke-linecap="round"/>
</svg>
