<svg width="25" height="24" viewBox="0 0 25 24" fill="none" xmlns="http://www.w3.org/2000/svg">
<path d="M21 8.45C19.95 3.83 15.92 1.75 12.38 1.75C12.38 1.75 12.38 1.75 12.37 1.75C8.83998 1.75 4.79998 3.82 3.74998 8.44C2.57998 13.6 5.73998 17.97 8.59998 20.72C9.65998 21.74 11.02 22.25 12.38 22.25C13.74 22.25 15.1 21.74 16.15 20.72C19.01 17.97 22.17 13.61 21 8.45ZM12.38 13.46C10.64 13.46 9.22998 12.05 9.22998 10.31C9.22998 8.57 10.64 7.16 12.38 7.16C14.12 7.16 15.53 8.57 15.53 10.31C15.53 12.05 14.12 13.46 12.38 13.46Z" fill="#A2A8AF"/>
</svg>
