<svg width="24" height="24" viewBox="0 0 24 24" fill="none" xmlns="http://www.w3.org/2000/svg">
<mask id="path-1-outside-1_3672_31865" maskUnits="userSpaceOnUse" x="0" y="0" width="24" height="24" fill="black">
<rect fill="white" width="24" height="24"/>
<path fill-rule="evenodd" clip-rule="evenodd" d="M12 22C17.5228 22 22 17.5228 22 12C22 6.47715 17.5228 2 12 2C6.47715 2 2 6.47715 2 12C2 17.5228 6.47715 22 12 22ZM12 16.1667C14.3012 16.1667 16.1667 14.3012 16.1667 12C16.1667 9.69881 14.3012 7.83333 12 7.83333C9.69881 7.83333 7.83333 9.69881 7.83333 12C7.83333 14.3012 9.69881 16.1667 12 16.1667Z"/>
</mask>
<path fill-rule="evenodd" clip-rule="evenodd" d="M12 22C17.5228 22 22 17.5228 22 12C22 6.47715 17.5228 2 12 2C6.47715 2 2 6.47715 2 12C2 17.5228 6.47715 22 12 22ZM12 16.1667C14.3012 16.1667 16.1667 14.3012 16.1667 12C16.1667 9.69881 14.3012 7.83333 12 7.83333C9.69881 7.83333 7.83333 9.69881 7.83333 12C7.83333 14.3012 9.69881 16.1667 12 16.1667Z" fill="url(#paint0_linear_3672_31865)"/>
<path d="M20 12C20 16.4183 16.4183 20 12 20V24C18.6274 24 24 18.6274 24 12H20ZM12 4C16.4183 4 20 7.58172 20 12H24C24 5.37258 18.6274 0 12 0V4ZM4 12C4 7.58172 7.58172 4 12 4V0C5.37258 0 0 5.37258 0 12H4ZM12 20C7.58172 20 4 16.4183 4 12H0C0 18.6274 5.37258 24 12 24V20ZM14.1667 12C14.1667 13.1966 13.1966 14.1667 12 14.1667V18.1667C15.4058 18.1667 18.1667 15.4058 18.1667 12H14.1667ZM12 9.83333C13.1966 9.83333 14.1667 10.8034 14.1667 12H18.1667C18.1667 8.59424 15.4058 5.83333 12 5.83333V9.83333ZM9.83333 12C9.83333 10.8034 10.8034 9.83333 12 9.83333V5.83333C8.59424 5.83333 5.83333 8.59424 5.83333 12H9.83333ZM12 14.1667C10.8034 14.1667 9.83333 13.1966 9.83333 12H5.83333C5.83333 15.4058 8.59424 18.1667 12 18.1667V14.1667Z" fill="white" mask="url(#path-1-outside-1_3672_31865)"/>
<defs>
<linearGradient id="paint0_linear_3672_31865" x1="-4.46018" y1="8.46018" x2="8.46018" y2="28.4602" gradientUnits="userSpaceOnUse">
<stop stop-color="#FF3B3B"/>
<stop offset="1" stop-color="#6600CC"/>
</linearGradient>
</defs>
</svg>
