<svg xmlns="http://www.w3.org/2000/svg" width="28" height="28" viewBox="0 0 28 28" fill="none">
  <path
    d="M13.818 0C9.086 0 5.25 3.836 5.25 8.638C5.25 13.37 9.898 19.348 13.888 24.22C17.808 19.264 22.526 13.44 22.526 8.638C22.456 3.836 18.62 0 13.818 0ZM13.818 14.336C10.64 14.336 8.12 11.746 8.12 8.638C8.12 5.46 10.71 2.954 13.804 2.954C16.982 2.954 19.488 5.544 19.488 8.638C19.572 11.816 16.996 14.336 13.818 14.336Z"
    fill="#D64457" />
  <path
    d="M10.57 8.637C10.57 9.519 10.934 10.331 11.536 10.933C12.124 11.521 13.02 11.899 13.832 11.899C14.714 11.899 15.526 11.535 16.128 10.933C16.716 10.345 17.094 9.449 17.094 8.637C17.094 7.755 16.73 6.943 16.128 6.341C15.54 5.753 14.644 5.375 13.832 5.375C12.95 5.375 12.138 5.739 11.536 6.341C10.934 6.943 10.57 7.755 10.57 8.637ZM13.888 27.999C8.34398 27.999 2.72998 26.221 2.72998 22.903C2.72998 21.055 4.57798 19.501 7.82598 18.549C8.41398 18.395 9.00198 18.703 9.15598 19.291C9.30998 19.879 9.00198 20.467 8.41398 20.621C5.97798 21.279 4.87198 22.245 4.87198 22.917C4.87198 24.093 8.41398 25.871 13.958 25.871C19.502 25.871 23.044 24.093 23.044 22.917C23.044 22.259 21.714 21.223 19.278 20.551C18.69 20.397 18.396 19.809 18.536 19.221C18.69 18.633 19.278 18.339 19.866 18.479C23.268 19.361 25.256 20.985 25.256 22.917C25.046 26.221 19.432 27.999 13.888 27.999Z"
    fill="#D64457" />
</svg>