<svg xmlns="http://www.w3.org/2000/svg" width="20" height="20" viewBox="0 0 20 20" fill="none">
  <path d="M5 8.33464V6.66797C5 3.90964 5.83333 1.66797 10 1.66797C14.1667 1.66797 15 3.90964 15 6.66797V8.33464"
    stroke="#6D6D6D" stroke-width="1.5" stroke-linecap="round" stroke-linejoin="round" />
  <path
    d="M10.0001 15.4167C11.1507 15.4167 12.0834 14.4839 12.0834 13.3333C12.0834 12.1827 11.1507 11.25 10.0001 11.25C8.84949 11.25 7.91675 12.1827 7.91675 13.3333C7.91675 14.4839 8.84949 15.4167 10.0001 15.4167Z"
    stroke="#6D6D6D" stroke-width="1.5" stroke-linecap="round" stroke-linejoin="round" />
  <path
    d="M14.1667 18.332H5.83341C2.50008 18.332 1.66675 17.4987 1.66675 14.1654V12.4987C1.66675 9.16536 2.50008 8.33203 5.83341 8.33203H14.1667C17.5001 8.33203 18.3334 9.16536 18.3334 12.4987V14.1654C18.3334 17.4987 17.5001 18.332 14.1667 18.332Z"
    stroke="#6D6D6D" stroke-width="1.5" stroke-linecap="round" stroke-linejoin="round" />
</svg>