<svg width="42" height="56" viewBox="0 0 42 56" fill="none" xmlns="http://www.w3.org/2000/svg">
<g clip-path="url(#clip0_3899_32686)">
<g filter="url(#filter0_f_3899_32686)">
<ellipse cx="21" cy="50.75" rx="7" ry="3.5" fill="black" fill-opacity="0.12"/>
</g>
<mask id="path-2-outside-1_3899_32686" maskUnits="userSpaceOnUse" x="1.5" y="1.5" width="39" height="50" fill="black">
<rect fill="white" x="1.5" y="1.5" width="39" height="50"/>
<path fill-rule="evenodd" clip-rule="evenodd" d="M31.3529 35.1106C35.687 31.9253 38.5 26.7911 38.5 21C38.5 11.335 30.665 3.5 21 3.5C11.335 3.5 3.5 11.335 3.5 21C3.5 26.7911 6.31297 31.9253 10.6471 35.1106C13.9406 37.5923 18.5832 41.5073 19.6503 47.8092C19.7634 48.4767 20.323 48.9947 21 48.9947C21.677 48.9947 22.2366 48.4767 22.3497 47.8092C23.4168 41.5073 28.0594 37.5923 31.3529 35.1106Z"/>
</mask>
<path fill-rule="evenodd" clip-rule="evenodd" d="M31.3529 35.1106C35.687 31.9253 38.5 26.7911 38.5 21C38.5 11.335 30.665 3.5 21 3.5C11.335 3.5 3.5 11.335 3.5 21C3.5 26.7911 6.31297 31.9253 10.6471 35.1106C13.9406 37.5923 18.5832 41.5073 19.6503 47.8092C19.7634 48.4767 20.323 48.9947 21 48.9947C21.677 48.9947 22.2366 48.4767 22.3497 47.8092C23.4168 41.5073 28.0594 37.5923 31.3529 35.1106Z" fill="#0063F7"/>
<path d="M31.3529 35.1106L30.3166 33.7004L30.3081 33.7066L30.2998 33.7129L31.3529 35.1106ZM10.6471 35.1106L11.7002 33.7129L11.6919 33.7066L11.6834 33.7004L10.6471 35.1106ZM19.6503 47.8092L17.9249 48.1014L19.6503 47.8092ZM22.3497 47.8092L24.0751 48.1014L22.3497 47.8092ZM32.3893 36.5207C37.1527 33.0199 40.25 27.3715 40.25 21H36.75C36.75 26.2108 34.2213 30.8307 30.3166 33.7004L32.3893 36.5207ZM40.25 21C40.25 10.3685 31.6315 1.75 21 1.75V5.25C29.6985 5.25 36.75 12.3015 36.75 21H40.25ZM21 1.75C10.3685 1.75 1.75 10.3685 1.75 21H5.25C5.25 12.3015 12.3015 5.25 21 5.25V1.75ZM1.75 21C1.75 27.3715 4.84726 33.0199 9.61073 36.5207L11.6834 33.7004C7.77868 30.8307 5.25 26.2108 5.25 21H1.75ZM21.3758 47.517C20.1854 40.4878 15.0184 36.2132 11.7002 33.7129L9.59394 36.5082C12.8629 38.9714 16.9809 42.5269 17.9249 48.1014L21.3758 47.517ZM21 47.2447C21.1201 47.2447 21.219 47.2931 21.2788 47.3465C21.3346 47.3963 21.3655 47.4565 21.3758 47.517L17.9249 48.1014C18.1665 49.528 19.3881 50.7447 21 50.7447V47.2447ZM20.6242 47.517C20.6345 47.4565 20.6654 47.3963 20.7212 47.3465C20.781 47.2931 20.8799 47.2447 21 47.2447V50.7447C22.6119 50.7447 23.8335 49.528 24.0751 48.1014L20.6242 47.517ZM30.2998 33.7129C26.9816 36.2132 21.8146 40.4878 20.6242 47.517L24.0751 48.1014C25.0191 42.5269 29.1371 38.9714 32.406 36.5082L30.2998 33.7129Z" fill="url(#paint0_linear_3899_32686)" mask="url(#path-2-outside-1_3899_32686)"/>
</g>
<defs>
<filter id="filter0_f_3899_32686" x="10.5" y="43.75" width="21" height="14" filterUnits="userSpaceOnUse" color-interpolation-filters="sRGB">
<feFlood flood-opacity="0" result="BackgroundImageFix"/>
<feBlend mode="normal" in="SourceGraphic" in2="BackgroundImageFix" result="shape"/>
<feGaussianBlur stdDeviation="1.75" result="effect1_foregroundBlur_3899_32686"/>
</filter>
<linearGradient id="paint0_linear_3899_32686" x1="21" y1="3.5" x2="21" y2="48.9947" gradientUnits="userSpaceOnUse">
<stop stop-color="white"/>
<stop offset="1" stop-color="white" stop-opacity="0.35"/>
</linearGradient>
<clipPath id="clip0_3899_32686">
<rect width="42" height="56" fill="white"/>
</clipPath>
</defs>
</svg>
