<svg width="42" height="56" viewBox="0 0 42 56" fill="none" xmlns="http://www.w3.org/2000/svg">
<g clip-path="url(#clip0_3900_32720)">
<g filter="url(#filter0_f_3900_32720)">
<ellipse cx="21" cy="50.75" rx="7" ry="3.5" fill="black" fill-opacity="0.12"/>
</g>
<mask id="path-2-outside-1_3900_32720" maskUnits="userSpaceOnUse" x="1.5" y="1.5" width="39" height="50" fill="black">
<rect fill="white" x="1.5" y="1.5" width="39" height="50"/>
<path fill-rule="evenodd" clip-rule="evenodd" d="M31.3529 35.1106C35.687 31.9253 38.5 26.7911 38.5 21C38.5 11.335 30.665 3.5 21 3.5C11.335 3.5 3.5 11.335 3.5 21C3.5 26.7911 6.31297 31.9253 10.6471 35.1106C13.9406 37.5923 18.5832 41.5073 19.6503 47.8092C19.7634 48.4767 20.323 48.9947 21 48.9947C21.677 48.9947 22.2366 48.4767 22.3497 47.8092C23.4168 41.5073 28.0594 37.5923 31.3529 35.1106Z"/>
</mask>
<path fill-rule="evenodd" clip-rule="evenodd" d="M31.3529 35.1106C35.687 31.9253 38.5 26.7911 38.5 21C38.5 11.335 30.665 3.5 21 3.5C11.335 3.5 3.5 11.335 3.5 21C3.5 26.7911 6.31297 31.9253 10.6471 35.1106C13.9406 37.5923 18.5832 41.5073 19.6503 47.8092C19.7634 48.4767 20.323 48.9947 21 48.9947C21.677 48.9947 22.2366 48.4767 22.3497 47.8092C23.4168 41.5073 28.0594 37.5923 31.3529 35.1106Z" fill="#11A75C"/>
<path d="M31.3529 35.1106L30.3166 33.7004L30.3081 33.7066L30.2998 33.7129L31.3529 35.1106ZM10.6471 35.1106L11.7002 33.7129L11.6919 33.7066L11.6834 33.7004L10.6471 35.1106ZM19.6503 47.8092L17.9249 48.1014L19.6503 47.8092ZM22.3497 47.8092L24.0751 48.1014L22.3497 47.8092ZM32.3893 36.5207C37.1527 33.0199 40.25 27.3715 40.25 21H36.75C36.75 26.2108 34.2213 30.8307 30.3166 33.7004L32.3893 36.5207ZM40.25 21C40.25 10.3685 31.6315 1.75 21 1.75V5.25C29.6985 5.25 36.75 12.3015 36.75 21H40.25ZM21 1.75C10.3685 1.75 1.75 10.3685 1.75 21H5.25C5.25 12.3015 12.3015 5.25 21 5.25V1.75ZM1.75 21C1.75 27.3715 4.84726 33.0199 9.61073 36.5207L11.6834 33.7004C7.77868 30.8307 5.25 26.2108 5.25 21H1.75ZM21.3758 47.517C20.1854 40.4878 15.0184 36.2132 11.7002 33.7129L9.59394 36.5082C12.8629 38.9714 16.9809 42.5269 17.9249 48.1014L21.3758 47.517ZM21 47.2447C21.1201 47.2447 21.219 47.2931 21.2788 47.3465C21.3346 47.3963 21.3655 47.4565 21.3758 47.517L17.9249 48.1014C18.1665 49.528 19.3881 50.7447 21 50.7447V47.2447ZM20.6242 47.517C20.6345 47.4565 20.6654 47.3963 20.7212 47.3465C20.781 47.2931 20.8799 47.2447 21 47.2447V50.7447C22.6119 50.7447 23.8335 49.528 24.0751 48.1014L20.6242 47.517ZM30.2998 33.7129C26.9816 36.2132 21.8146 40.4878 20.6242 47.517L24.0751 48.1014C25.0191 42.5269 29.1371 38.9714 32.406 36.5082L30.2998 33.7129Z" fill="url(#paint0_linear_3900_32720)" mask="url(#path-2-outside-1_3900_32720)"/>
</g>
<path d="M18.001 24.8467L14.6789 21.5246C14.6787 21.5243 14.6785 21.5241 14.6783 21.5239C14.5636 21.4081 14.4271 21.316 14.2767 21.2532C14.126 21.1902 13.9643 21.1578 13.801 21.1578C13.6377 21.1578 13.476 21.1902 13.3253 21.2532C13.1751 21.3159 13.0388 21.4078 12.9243 21.5235C12.8086 21.638 12.7167 21.7743 12.654 21.9246C12.591 22.0753 12.5586 22.2369 12.5586 22.4003C12.5586 22.5636 12.591 22.7252 12.654 22.8759C12.7168 23.0264 12.8088 23.1628 12.9247 23.2775C12.9249 23.2777 12.9251 23.2779 12.9253 23.2781L17.1143 27.467C17.6019 27.9547 18.3902 27.9547 18.8778 27.467L29.4767 16.8781C29.4769 16.8779 29.4771 16.8778 29.4772 16.8776C29.5932 16.7629 29.6852 16.6264 29.7481 16.4759C29.8111 16.3252 29.8435 16.1636 29.8435 16.0003C29.8435 15.8369 29.8111 15.6753 29.7481 15.5246C29.6854 15.3744 29.5935 15.2381 29.4779 15.1235C29.3633 15.0078 29.227 14.9159 29.0767 14.8532C28.926 14.7902 28.7643 14.7578 28.601 14.7578C28.4377 14.7578 28.276 14.7902 28.1253 14.8532C27.9749 14.916 27.8384 15.0081 27.7238 15.1239C27.7236 15.1241 27.7234 15.1243 27.7232 15.1246L18.001 24.8467Z" fill="white" stroke="white" stroke-width="0.5"/>
<defs>
<filter id="filter0_f_3900_32720" x="10.5" y="43.75" width="21" height="14" filterUnits="userSpaceOnUse" color-interpolation-filters="sRGB">
<feFlood flood-opacity="0" result="BackgroundImageFix"/>
<feBlend mode="normal" in="SourceGraphic" in2="BackgroundImageFix" result="shape"/>
<feGaussianBlur stdDeviation="1.75" result="effect1_foregroundBlur_3900_32720"/>
</filter>
<linearGradient id="paint0_linear_3900_32720" x1="21" y1="3.5" x2="21" y2="48.9947" gradientUnits="userSpaceOnUse">
<stop stop-color="white"/>
<stop offset="1" stop-color="white" stop-opacity="0.35"/>
</linearGradient>
<clipPath id="clip0_3900_32720">
<rect width="42" height="56" fill="white"/>
</clipPath>
</defs>
</svg>
