<svg width="24" height="24" viewBox="0 0 24 24" fill="none" xmlns="http://www.w3.org/2000/svg">
<path fill-rule="evenodd" clip-rule="evenodd" d="M13.66 2.56L13.796 2.656L19.746 7.104C20.861 7.848 21.585 9.048 21.726 10.376C21.769 10.788 21.47 11.156 21.058 11.2C20.646 11.244 20.277 10.945 20.233 10.533C20.146 9.703 19.716 8.948 19.023 8.43L18.881 8.33L12.898 3.857C12.401 3.486 11.731 3.461 11.211 3.783L11.102 3.857L5.086 8.352C4.3 8.876 3.81 9.737 3.756 10.672L3.75 10.849V21C3.75 21.414 3.414 21.75 3 21.75C2.615 21.75 2.298 21.46 2.255 21.087L2.25 21V10.849C2.25 9.409 2.938 8.061 4.065 7.237L4.221 7.127L10.204 2.656C11.224 1.893 12.61 1.861 13.661 2.561L13.66 2.56ZM18.018 17.176C19.507 17.176 20.821 18.162 21.351 19.628L21.407 19.792L21.716 20.775C21.84 21.171 21.62 21.591 21.225 21.715C20.858 21.831 20.469 21.649 20.315 21.307L20.285 21.225L19.975 20.242C19.693 19.342 18.965 18.738 18.148 18.68L18.018 18.676H15.528C14.701 18.676 13.946 19.234 13.618 20.102L13.569 20.242L13.261 21.225C13.137 21.62 12.716 21.84 12.321 21.715C11.954 21.6 11.738 21.229 11.808 20.86L11.83 20.775L12.138 19.792C12.609 18.292 13.888 17.252 15.363 17.18L15.527 17.176H18.017H18.018ZM10.5 17.176C10.914 17.176 11.25 17.511 11.25 17.926C11.25 18.31 10.96 18.627 10.587 18.67L10.5 18.676H8.685C7.859 18.676 7.104 19.234 6.775 20.102L6.727 20.242L6.419 21.225C6.295 21.62 5.874 21.84 5.479 21.715C5.112 21.6 4.896 21.229 4.966 20.86L4.988 20.775L5.296 19.792C5.767 18.292 7.046 17.252 8.521 17.18L8.685 17.176H10.5ZM16.773 10.5C18.33 10.5 19.592 11.762 19.592 13.32C19.592 14.877 18.33 16.14 16.772 16.14C15.215 16.14 13.953 14.877 13.953 13.32C13.953 11.762 15.215 10.5 16.773 10.5ZM9.93 10.5C11.488 10.5 12.75 11.762 12.75 13.32C12.75 14.877 11.488 16.14 9.93 16.14C8.373 16.14 7.11 14.877 7.11 13.32C7.11 11.762 8.373 10.5 9.93 10.5ZM16.773 12C16.043 12 15.453 12.59 15.453 13.32C15.453 14.048 16.043 14.64 16.773 14.64C17.501 14.64 18.092 14.048 18.092 13.32C18.092 12.59 17.502 12 16.772 12H16.773ZM9.93 12C9.202 12 8.61 12.59 8.61 13.32C8.61 14.048 9.202 14.64 9.93 14.64C10.66 14.64 11.25 14.048 11.25 13.32C11.25 12.59 10.66 12 9.93 12Z" fill="#A3A8AF"/>
</svg>
