<svg width="20" height="20" viewBox="0 0 20 20" fill="none" xmlns="http://www.w3.org/2000/svg">
<g id="icons-dform-ic-combo-family 1">
<g id="Group">
<g id="Group_2">
<g id="Group_3">
<g id="Group_4">
<g id="Group_5">
<path id="Vector" fill-rule="evenodd" clip-rule="evenodd" d="M11.3833 2.13345L11.4967 2.21345L16.455 5.92012C17.3842 6.54012 17.9875 7.54012 18.105 8.64679C18.1408 8.99012 17.8917 9.29679 17.5483 9.33345C17.205 9.37012 16.8975 9.12095 16.8608 8.77762C16.7883 8.08595 16.43 7.45679 15.8525 7.02512L15.7342 6.94179L10.7483 3.21429C10.3342 2.90512 9.77583 2.88429 9.3425 3.15262L9.25167 3.21429L4.23833 6.96012C3.58333 7.39679 3.175 8.11429 3.13 8.89345L3.125 9.04095V17.5001C3.125 17.8451 2.845 18.1251 2.5 18.1251C2.17917 18.1251 1.915 17.8835 1.87917 17.5726L1.875 17.5001V9.04095C1.875 7.84095 2.44833 6.71762 3.3875 6.03095L3.5175 5.93929L8.50333 2.21345C9.35333 1.57762 10.5083 1.55095 11.3842 2.13429L11.3833 2.13345ZM15.015 14.3135C16.2558 14.3135 17.3508 15.1351 17.7925 16.3568L17.8392 16.4935L18.0967 17.3126C18.2 17.6426 18.0167 17.9926 17.6875 18.096C17.3817 18.1926 17.0575 18.041 16.9292 17.756L16.9042 17.6876L16.6458 16.8685C16.4108 16.1185 15.8042 15.6151 15.1233 15.5668L15.015 15.5635H12.94C12.2508 15.5635 11.6217 16.0285 11.3483 16.7518L11.3075 16.8685L11.0508 17.6876C10.9475 18.0168 10.5967 18.2001 10.2675 18.096C9.96167 18.0001 9.78167 17.691 9.84 17.3835L9.85833 17.3126L10.115 16.4935C10.5075 15.2435 11.5733 14.3768 12.8025 14.3168L12.9392 14.3135H15.0142H15.015ZM8.75 14.3135C9.095 14.3135 9.375 14.5926 9.375 14.9385C9.375 15.2585 9.13333 15.5226 8.8225 15.5585L8.75 15.5635H7.2375C6.54917 15.5635 5.92 16.0285 5.64583 16.7518L5.60583 16.8685L5.34917 17.6876C5.24583 18.0168 4.895 18.2001 4.56583 18.096C4.26 18.0001 4.08 17.691 4.13833 17.3835L4.15667 17.3126L4.41333 16.4935C4.80583 15.2435 5.87167 14.3768 7.10083 14.3168L7.2375 14.3135H8.75ZM13.9775 8.75012C15.275 8.75012 16.3267 9.80179 16.3267 11.1001C16.3267 12.3976 15.275 13.4501 13.9767 13.4501C12.6792 13.4501 11.6275 12.3976 11.6275 11.1001C11.6275 9.80179 12.6792 8.75012 13.9775 8.75012ZM8.275 8.75012C9.57333 8.75012 10.625 9.80179 10.625 11.1001C10.625 12.3976 9.57333 13.4501 8.275 13.4501C6.9775 13.4501 5.925 12.3976 5.925 11.1001C5.925 9.80179 6.9775 8.75012 8.275 8.75012ZM13.9775 10.0001C13.3692 10.0001 12.8775 10.4918 12.8775 11.1001C12.8775 11.7068 13.3692 12.2001 13.9775 12.2001C14.5842 12.2001 15.0767 11.7068 15.0767 11.1001C15.0767 10.4918 14.585 10.0001 13.9767 10.0001H13.9775ZM8.275 10.0001C7.66833 10.0001 7.175 10.4918 7.175 11.1001C7.175 11.7068 7.66833 12.2001 8.275 12.2001C8.88333 12.2001 9.375 11.7068 9.375 11.1001C9.375 10.4918 8.88333 10.0001 8.275 10.0001Z" fill="#0070F4"/>
</g>
</g>
</g>
</g>
</g>
</g>
</svg>
