<svg xmlns="http://www.w3.org/2000/svg" width="28" height="28" viewBox="0 0 28 28" fill="none">
  <path
    d="M13.7983 17.3701H15.0855V15.7544H16.734V14.4672H15.0855V12.8516H13.7983V14.4672H12.2155V15.7544H13.7983V17.3701Z"
    fill="#D64457" />
  <path
    d="M4.03895 24H23.961C25.0871 24 26 23.0743 26 21.9325V8.62316C26 7.48139 25.0871 6.55568 23.961 6.55568H19.5309C19.5788 6.33704 19.6069 6.11014 19.6069 5.87652V5.10121C19.6069 3.39089 18.2352 2 16.5484 2H11.4511C9.76433 2 8.39263 3.39089 8.39263 5.10121V5.87652C8.39263 6.11014 8.42066 6.33704 8.46858 6.55568H4.03895C2.91294 6.55568 2 7.48139 2 8.62316V21.9325C2 23.0743 2.91294 24 4.03895 24ZM10.4316 5.10121C10.4316 4.53111 10.8893 4.06747 11.4511 4.06747H16.5484C17.1102 4.06747 17.5679 4.53111 17.5679 5.10121V5.87652C17.5679 6.13753 17.469 6.37374 17.3105 6.55568H10.689C10.5305 6.37374 10.4316 6.13753 10.4316 5.87652V5.10121ZM12.0969 10.1107C13.0766 10.1107 13.9528 10.549 14.5528 11.2401C15.1533 10.549 16.029 10.1107 17.0087 10.1107C18.8178 10.1107 20.2838 11.5972 20.2838 13.4316C20.2838 14.4462 19.8332 15.3528 19.1262 15.9622H19.1282L14.6211 20.445L9.9774 15.9622H9.97893C9.27192 15.3528 8.82132 14.4457 8.82132 13.4316C8.82183 11.5972 10.2878 10.1107 12.0969 10.1107Z"
    fill="#D64457" />
</svg>