<svg width="41" height="30" viewBox="0 0 41 30" fill="none" xmlns="http://www.w3.org/2000/svg">
<path d="M4.30981 29.3312C6.44746 29.3312 8.19406 27.5681 8.19406 25.4103V0.148438H30.8739V25.4103C30.8739 27.5681 29.1273 29.3312 26.9897 29.3312" fill="url(#paint0_linear_510_24685)"/>
<path d="M23.1053 25.411V22.4375H0.425415V25.411C0.425415 27.5688 2.17203 29.3319 4.30967 29.3319H26.9895C24.8519 29.3319 23.1053 27.5688 23.1053 25.411Z" fill="url(#paint1_linear_510_24685)"/>
<path d="M15.1543 5.17969H12.2606V6.44278H15.1543V5.17969Z" fill="white"/>
<path d="M26.2856 5.17969H17.3961V6.44278H26.2856V5.17969Z" fill="#F7C604"/>
<path d="M15.1544 9.64844H12.2607V10.9115H15.1544V9.64844Z" fill="white"/>
<path d="M26.2857 9.64844H17.3962V10.9115H26.2857V9.64844Z" fill="#F7C604"/>
<path d="M15.1543 14.1172H12.2606V15.3803H15.1543V14.1172Z" fill="white"/>
<path d="M26.2856 14.1172H17.3961V15.3803H26.2856V14.1172Z" fill="#F7C604"/>
<path d="M15.1544 18.5938H12.2607V19.8568H15.1544V18.5938Z" fill="white"/>
<path d="M26.2852 18.5938H17.3958V19.8568H26.2852V18.5938Z" fill="#F7C604"/>
<path opacity="0.1" d="M30.8739 18.8076V3.78207C30.5611 3.72944 30.2222 3.70312 29.8833 3.70312C25.7384 3.70312 22.3755 7.09769 22.3755 11.2817C22.3755 15.4657 25.7384 18.8602 29.8833 18.8602C30.2222 18.8866 30.5611 18.8602 30.8739 18.8076Z" fill="#0C1E5B"/>
<path d="M32.5166 17.3604C36.663 17.3604 40.0244 13.9673 40.0244 9.78177C40.0244 5.5962 36.663 2.20312 32.5166 2.20312C28.3701 2.20312 25.0087 5.5962 25.0087 9.78177C25.0087 13.9673 28.3701 17.3604 32.5166 17.3604Z" fill="url(#paint2_linear_510_24685)"/>
<path d="M33.8455 10.304V5.59375H31.1865V10.304H29.4138L32.516 13.9617L35.6182 10.304H33.8455Z" fill="white"/>
<defs>
<linearGradient id="paint0_linear_510_24685" x1="-4.27063" y1="9.57471" x2="15.2512" y2="37.0819" gradientUnits="userSpaceOnUse">
<stop stop-color="#FF3B3B"/>
<stop offset="1" stop-color="#BC004F"/>
</linearGradient>
<linearGradient id="paint1_linear_510_24685" x1="-8.15503" y1="24.6644" x2="-6.56145" y2="34.1689" gradientUnits="userSpaceOnUse">
<stop stop-color="#ED2222"/>
<stop offset="1" stop-color="#98012E"/>
</linearGradient>
<linearGradient id="paint2_linear_510_24685" x1="20.1584" y1="7.09906" x2="29.9878" y2="22.1723" gradientUnits="userSpaceOnUse">
<stop stop-color="#FF8800"/>
<stop offset="1" stop-color="#E63535"/>
</linearGradient>
</defs>
</svg>
