<svg width="70" height="70" viewBox="0 0 70 70" fill="none" xmlns="http://www.w3.org/2000/svg">
<g filter="url(#filter0_dd_3673_33772)">
<rect x="15" y="11" width="40" height="40" rx="20" fill="url(#paint0_linear_3673_33772)"/>
<circle opacity="0.2" cx="35" cy="31" r="29" fill="url(#paint1_linear_3673_33772)"/>
<circle cx="35" cy="31" r="21" fill="url(#paint2_linear_3673_33772)" stroke="white" stroke-width="2"/>
<path fill-rule="evenodd" clip-rule="evenodd" d="M34.5 36.8868L34.5 22.168C33.2485 22.168 32.4582 23.9245 30.8776 27.4377L28.3739 33.0026C27.4141 35.1358 26.9342 36.2024 27.0073 36.8739C27.1127 37.844 27.7695 38.6276 28.6328 38.8133C29.2303 38.9418 30.2217 38.4855 32.2044 37.5727C32.9379 37.2351 33.3047 37.0662 33.6805 36.9799C33.9508 36.9178 34.2254 36.8868 34.5 36.8868Z" fill="white"/>
<path opacity="0.5" d="M40.6261 33.0026L38.1224 27.4377L38.1224 27.4377C36.5418 23.9245 35.7515 22.168 34.5 22.168L34.5 36.8868C34.7746 36.8868 35.0492 36.9178 35.3195 36.9799C35.6953 37.0662 36.0621 37.2351 36.7956 37.5727C38.7783 38.4855 39.7697 38.9418 40.3672 38.8133C41.2305 38.6276 41.8872 37.844 41.9927 36.8739C42.0658 36.2024 41.5859 35.1358 40.6261 33.0026Z" fill="white"/>
</g>
<defs>
<filter id="filter0_dd_3673_33772" x="0" y="0" width="70" height="70" filterUnits="userSpaceOnUse" color-interpolation-filters="sRGB">
<feFlood flood-opacity="0" result="BackgroundImageFix"/>
<feColorMatrix in="SourceAlpha" type="matrix" values="0 0 0 0 0 0 0 0 0 0 0 0 0 0 0 0 0 0 127 0" result="hardAlpha"/>
<feMorphology radius="2" operator="erode" in="SourceAlpha" result="effect1_dropShadow_3673_33772"/>
<feOffset dy="2"/>
<feGaussianBlur stdDeviation="2"/>
<feColorMatrix type="matrix" values="0 0 0 0 0.176471 0 0 0 0 0.211765 0 0 0 0 0.262745 0 0 0 0.06 0"/>
<feBlend mode="normal" in2="BackgroundImageFix" result="effect1_dropShadow_3673_33772"/>
<feColorMatrix in="SourceAlpha" type="matrix" values="0 0 0 0 0 0 0 0 0 0 0 0 0 0 0 0 0 0 127 0" result="hardAlpha"/>
<feMorphology radius="2" operator="erode" in="SourceAlpha" result="effect2_dropShadow_3673_33772"/>
<feOffset dy="4"/>
<feGaussianBlur stdDeviation="4"/>
<feColorMatrix type="matrix" values="0 0 0 0 0.176471 0 0 0 0 0.211765 0 0 0 0 0.262745 0 0 0 0.08 0"/>
<feBlend mode="normal" in2="effect1_dropShadow_3673_33772" result="effect2_dropShadow_3673_33772"/>
<feBlend mode="normal" in="SourceGraphic" in2="effect2_dropShadow_3673_33772" result="shape"/>
</filter>
<linearGradient id="paint0_linear_3673_33772" x1="2.07965" y1="23.9204" x2="27.9204" y2="63.9204" gradientUnits="userSpaceOnUse">
<stop stop-color="#FF3B3B"/>
<stop offset="1" stop-color="#6600CC"/>
</linearGradient>
<linearGradient id="paint1_linear_3673_33772" x1="-12.7345" y1="20.7345" x2="24.7345" y2="78.7345" gradientUnits="userSpaceOnUse">
<stop stop-color="#FF3B3B"/>
<stop offset="1" stop-color="#6600CC"/>
</linearGradient>
<linearGradient id="paint2_linear_3673_33772" x1="2.07965" y1="23.9204" x2="27.9204" y2="63.9204" gradientUnits="userSpaceOnUse">
<stop stop-color="#FF3B3B"/>
<stop offset="1" stop-color="#6600CC"/>
</linearGradient>
</defs>
</svg>
