<svg width="24" height="24" viewBox="0 0 24 24" fill="none" xmlns="http://www.w3.org/2000/svg">
<path d="M12.2864 2.00005C12.1639 2.0001 12.0429 2.02759 11.9323 2.08052C11.8217 2.13345 11.7242 2.21049 11.6469 2.30606L11.583 2.35373C10.3842 1.98683 9.10904 1.95316 7.89278 2.25631C6.67652 2.55946 5.56457 3.18811 4.67493 4.07555C3.88641 4.86082 3.30004 5.8275 2.96656 6.89193C2.63308 7.95636 2.56254 9.08648 2.76105 10.1845L2.74451 10.2011L1.68835 11.2555C1.47025 11.4728 1.29713 11.7314 1.17898 12.0164C1.06083 12.3013 1 12.607 1 12.9158C1 13.2245 1.06083 13.5302 1.17898 13.8152C1.29713 14.1002 1.47025 14.3588 1.68835 14.5761C1.94486 14.8323 2.2566 15.0257 2.59939 15.1412C2.94218 15.2568 3.30683 15.2914 3.66507 15.2424C3.79278 15.71 4.06052 16.1267 4.43193 16.4359C4.80333 16.7452 5.26039 16.9319 5.74102 16.9709C5.79042 17.5394 6.04285 18.0707 6.45164 18.4665C6.86043 18.8623 7.39792 19.0959 7.9647 19.124C7.99336 19.685 8.22157 20.2371 8.65043 20.6651C9.48831 21.5032 10.8024 21.5753 11.723 20.8835L12.1497 21.3092C12.5937 21.7517 13.1936 22 13.8188 22C14.444 22 15.0439 21.7517 15.4879 21.3092C15.8958 20.9001 16.1241 20.3801 16.1715 19.8479C16.7216 19.8011 17.2377 19.5606 17.6289 19.1688C18.0201 18.777 18.2614 18.259 18.3103 17.7059C18.7949 17.6613 19.2537 17.4661 19.6232 17.1475C19.9926 16.8288 20.2542 16.4025 20.3719 15.9276C20.7247 15.9701 21.0826 15.9317 21.4186 15.8154C21.7547 15.699 22.0602 15.5077 22.3122 15.2557C22.5301 15.0384 22.7031 14.7799 22.8212 14.495C22.9392 14.2101 23 13.9046 23 13.596C23 13.2874 22.9392 12.9818 22.8212 12.6969C22.7031 12.4121 22.5301 12.1535 22.3122 11.9362L21.3939 11.0171L21.5835 10.2787C21.9937 8.67186 21.7871 6.96854 21.0047 5.50799C20.4354 4.44766 19.5914 3.5621 18.562 2.94526C17.5327 2.32843 16.3565 2.00334 15.1583 2.00449H13.3866C13.311 2.00117 13.2353 1.99969 13.1595 2.00005H12.2875H12.2864ZM15.5111 7.48259L19.33 11.2976L19.3333 11.3032L19.3488 11.3176L21.1403 13.1081C21.2043 13.172 21.2551 13.248 21.2897 13.3318C21.3244 13.4155 21.3423 13.5053 21.3423 13.596C21.3423 13.6867 21.3244 13.7765 21.2897 13.8602C21.2551 13.9439 21.2043 14.0199 21.1403 14.0838C21.0103 14.2131 20.8348 14.2857 20.6519 14.2857C20.469 14.2857 20.2935 14.2131 20.1635 14.0838L18.372 12.2932C18.2159 12.1378 18.0051 12.0506 17.7855 12.0506C17.5658 12.0506 17.355 12.1378 17.199 12.2932L17.1813 12.3121C17.1044 12.3888 17.0433 12.4801 17.0016 12.5806C16.9599 12.6812 16.9384 12.7891 16.9384 12.898C16.9384 13.007 16.9599 13.1149 17.0016 13.2155C17.0433 13.316 17.1044 13.4073 17.1813 13.484L18.577 14.8787C18.6414 14.9427 18.6925 15.0188 18.7273 15.1027C18.7622 15.1867 18.7801 15.2767 18.7801 15.3677C18.7801 15.4586 18.7622 15.5487 18.7273 15.6326C18.6925 15.7165 18.6414 15.7927 18.577 15.8566C18.459 15.9741 18.3031 16.0452 18.1374 16.057C17.9718 16.0688 17.8074 16.0205 17.6741 15.9209C17.5136 15.8003 17.3153 15.7419 17.1155 15.7564C16.9156 15.7708 16.7277 15.8572 16.586 15.9996C16.4447 16.1416 16.3599 16.3306 16.3473 16.531C16.3347 16.7315 16.3953 16.9296 16.5176 17.0884C16.6193 17.2212 16.6693 17.3867 16.6581 17.5539C16.647 17.7212 16.5754 17.8785 16.457 17.9964C16.3372 18.1158 16.1782 18.1873 16.0099 18.1975C15.8415 18.2077 15.6752 18.1559 15.542 18.0518C15.3826 17.9268 15.1835 17.8643 14.9817 17.8759C14.7799 17.8876 14.5891 17.9725 14.445 18.115C14.3014 18.2572 14.2148 18.4475 14.2017 18.6498C14.1887 18.852 14.2502 19.052 14.3744 19.2115C14.4786 19.3464 14.5301 19.5149 14.5191 19.6852C14.5081 19.8556 14.4355 20.016 14.3149 20.1362C14.1828 20.2676 14.0046 20.3412 13.8188 20.3412C13.633 20.3412 13.4548 20.2676 13.3227 20.1362L12.9126 19.7271L13.0283 19.6107C13.2463 19.3934 13.4192 19.1349 13.5373 18.85C13.6553 18.5651 13.7161 18.2596 13.7161 17.951C13.7161 17.6423 13.6553 17.3368 13.5373 17.0519C13.4192 16.767 13.2463 16.5085 13.0283 16.2912C12.616 15.8784 12.066 15.6343 11.4849 15.606C11.4534 15.0364 11.2179 14.4976 10.8219 14.0891C10.4258 13.6806 9.89609 13.4302 9.33065 13.3842C9.2855 12.8289 9.04421 12.3082 8.65043 11.9163C8.39391 11.6601 8.08218 11.4667 7.73939 11.3511C7.39659 11.2356 7.03195 11.201 6.67371 11.25C6.53376 10.7397 6.2276 10.2913 5.80425 9.97674C5.3809 9.66215 4.86484 9.49951 4.33868 9.51484C4.25496 8.73501 4.34719 7.94624 4.60849 7.20722C4.8698 6.46819 5.29347 5.79794 5.84796 5.24634C6.36467 4.73011 6.98244 4.32754 7.66206 4.06415C8.34169 3.80076 9.06834 3.68232 9.79589 3.71633L8.1455 4.97249C7.8773 5.17661 7.65189 5.43206 7.48224 5.72413C7.31258 6.01619 7.20203 6.33912 7.15695 6.67431C7.11186 7.00951 7.13313 7.35037 7.21954 7.67726C7.30595 8.00416 7.45578 8.31065 7.66041 8.57909C8.07371 9.12089 8.68327 9.47634 9.35614 9.56794C10.029 9.65953 10.7106 9.47983 11.2523 9.06803L13.3348 7.48148L15.5111 7.48259ZM9.14323 6.2996L12.6039 3.66311H13.1595C13.2283 3.66261 13.297 3.66445 13.3657 3.66865H15.1583C16.0577 3.66743 16.9407 3.91105 17.7136 4.37366C18.4865 4.83628 19.1205 5.50064 19.5483 6.29628C20.094 7.31628 20.2649 8.48929 20.0378 9.61684L16.4978 6.07343C16.4207 5.99319 16.3284 5.92936 16.2263 5.88574C16.1243 5.84212 16.0145 5.81961 15.9036 5.81953H13.0581C12.8778 5.81945 12.7024 5.87863 12.5587 5.98806L10.2545 7.74313C10.0613 7.88978 9.81828 7.95376 9.57837 7.92117C9.33847 7.88857 9.12107 7.76203 8.97345 7.56907C8.90136 7.4746 8.84858 7.36672 8.81813 7.25164C8.78769 7.13656 8.7802 7.01656 8.79608 6.89856C8.81197 6.78055 8.85092 6.66688 8.91069 6.56408C8.97046 6.46128 9.04987 6.3714 9.14434 6.2996H9.14323ZM5.44556 15.1182C5.38156 15.0543 5.33076 14.9783 5.2961 14.8946C5.26144 14.8109 5.24359 14.7211 5.24359 14.6304C5.24359 14.5397 5.26144 14.4499 5.2961 14.3662C5.33076 14.2825 5.38156 14.2065 5.44556 14.1426L6.50062 13.0893C6.63065 12.96 6.80614 12.8874 6.98901 12.8874C7.17189 12.8874 7.34738 12.96 7.47741 13.0893C7.60483 13.2168 7.67719 13.3896 7.67885 13.5703C7.6805 13.7511 7.6113 13.9252 7.48623 14.055L7.47741 14.065L6.42234 15.1182L6.41242 15.1282C6.28183 15.2536 6.10775 15.3228 5.9272 15.3212C5.74664 15.3195 5.57385 15.2471 5.44556 15.1193V15.1182ZM4.90425 11.3841C5.02923 11.5139 5.09819 11.688 5.09612 11.8687C5.09406 12.0493 5.02113 12.2218 4.89322 12.3487L3.83816 13.4042C3.70813 13.5335 3.53264 13.606 3.34977 13.606C3.16689 13.606 2.9914 13.5335 2.86137 13.4042C2.79737 13.3403 2.74658 13.2643 2.71192 13.1805C2.67725 13.0968 2.65941 13.007 2.65941 12.9163C2.65941 12.8256 2.67725 12.7359 2.71192 12.6521C2.74658 12.5684 2.79737 12.4924 2.86137 12.4285L3.91754 11.3741C4.04756 11.2448 4.22306 11.1723 4.40593 11.1723C4.5888 11.1723 4.7643 11.2448 4.89432 11.3741L4.90425 11.3841ZM10.8002 19.4932C10.6704 19.6227 10.4948 19.6955 10.3118 19.6955C10.1289 19.6955 9.95334 19.6227 9.82346 19.4932C9.75946 19.4293 9.70866 19.3533 9.674 19.2695C9.63934 19.1858 9.62149 19.096 9.62149 19.0053C9.62149 18.9146 9.63934 18.8248 9.674 18.7411C9.70866 18.6574 9.75946 18.5814 9.82346 18.5175L10.8785 17.4631C11.0085 17.3338 11.184 17.2613 11.3669 17.2613C11.5498 17.2613 11.7253 17.3338 11.8553 17.4631C11.9193 17.527 11.9701 17.603 12.0048 17.6867C12.0394 17.7705 12.0573 17.8603 12.0573 17.951C12.0573 18.0416 12.0394 18.1314 12.0048 18.2152C11.9701 18.2989 11.9193 18.3749 11.8553 18.4388L10.8002 19.4932ZM8.57216 17.2669C8.44227 17.3965 8.26672 17.4692 8.08376 17.4692C7.9008 17.4692 7.72526 17.3965 7.59537 17.2669C7.46747 17.1395 7.39469 16.9666 7.39283 16.7855C7.39097 16.6045 7.46019 16.4301 7.58545 16.3001L7.59537 16.2912L8.65043 15.2369L8.65925 15.2269C8.79017 15.1015 8.96451 15.0325 9.14525 15.0343C9.32598 15.0362 9.49888 15.1089 9.62722 15.2369C9.69122 15.3007 9.74201 15.3767 9.77667 15.4605C9.81134 15.5442 9.82918 15.634 9.82918 15.7247C9.82918 15.8154 9.81134 15.9052 9.77667 15.9889C9.74201 16.0726 9.69122 16.1486 9.62722 16.2125L8.57216 17.2669Z" fill="#A3A8AF"/>
</svg>
