<svg width="33" height="33" viewBox="0 0 33 33" fill="none" xmlns="http://www.w3.org/2000/svg">
<path d="M6.53836 19.084C6.37814 19.0842 6.22156 19.0362 6.08891 18.9464C5.95625 18.8565 5.85364 18.7289 5.79436 18.58C5.26476 17.2536 4.99756 15.852 4.99756 14.4136C4.99756 8.21205 10.0424 3.16565 16.2456 3.16565C22.4488 3.16565 27.4936 8.21045 27.4936 14.4136C27.4936 15.7032 27.2776 16.9673 26.8504 18.1721C26.7793 18.3717 26.6319 18.5351 26.4405 18.6263C26.2491 18.7174 26.0294 18.729 25.8296 18.6584C25.6298 18.5875 25.4663 18.4401 25.3751 18.2487C25.2839 18.0573 25.2724 17.8375 25.3432 17.6376C25.71 16.6024 25.8967 15.512 25.8952 14.4136C25.8952 9.09365 21.5672 4.76565 16.2472 4.76565C10.9272 4.76565 6.59916 9.09365 6.59916 14.4136C6.59916 15.6488 6.82956 16.8505 7.28236 17.9865C7.33048 18.108 7.34818 18.2394 7.33392 18.3693C7.31966 18.4993 7.27387 18.6237 7.20053 18.7319C7.12719 18.8401 7.02853 18.9288 6.91312 18.9901C6.79772 19.0515 6.66907 19.0837 6.53836 19.084Z" fill="#D64457"/>
<path d="M13.78 13.7267C13.78 14.7614 14.58 15.5934 15.5614 15.5934H17.5667C18.42 15.5934 19.1134 14.8681 19.1134 13.9614C19.1134 12.9908 18.6867 12.6388 18.0574 12.4148L14.8467 11.2948C14.2174 11.0708 13.7907 10.7294 13.7907 9.74809C13.7907 8.85209 14.484 8.11609 15.3374 8.11609H17.3427C18.324 8.11609 19.124 8.94809 19.124 9.98276" stroke="#D64457" stroke-width="1.5" stroke-linecap="round" stroke-linejoin="round"/>
<path d="M16.4468 7.06006V16.6601" stroke="#D64457" stroke-width="1.5" stroke-linecap="round" stroke-linejoin="round"/>
<path d="M19.2473 29.9273C18.6969 29.9273 18.1433 29.8345 17.6137 29.6425L11.5897 27.4601L8.00571 29.3305C7.61531 29.5353 7.13051 29.3833 6.92571 28.9913C6.87702 28.8981 6.84718 28.7963 6.83788 28.6915C6.82858 28.5868 6.84001 28.4813 6.87151 28.381C6.90301 28.2807 6.95397 28.1876 7.02147 28.107C7.08897 28.0264 7.17169 27.9599 7.26491 27.9113L11.1609 25.8777C11.3593 25.7737 11.5929 25.7577 11.8025 25.8345L18.1577 28.1353C19.2169 28.5193 20.4169 28.3145 21.2905 27.6041L27.3705 22.6505C27.5166 22.5169 27.6104 22.3358 27.6353 22.1395C27.6602 21.9431 27.6146 21.7443 27.5065 21.5785C27.2553 21.1961 26.7401 21.0873 26.3577 21.3369L20.9641 24.8313C20.6614 25.028 20.3188 25.1551 19.9611 25.2035C19.6034 25.2519 19.2394 25.2204 18.8953 25.1113L15.4409 24.0201C15.1081 23.9145 14.8809 23.6057 14.8825 23.2569C14.8841 22.9081 15.1097 22.5993 15.4425 22.4937L18.5017 21.5337C18.6949 21.4738 18.8602 21.3465 18.9674 21.175C19.0746 21.0035 19.1166 20.7992 19.0857 20.5993C19.0217 20.1817 18.6697 19.8793 18.2489 19.8793H11.3817C11.2857 19.8793 11.1897 19.9017 11.1049 19.9433L4.90811 22.9609C4.8137 23.007 4.71111 23.034 4.60623 23.0404C4.50135 23.0468 4.39625 23.0324 4.29694 22.9981C4.19764 22.9637 4.1061 22.9101 4.02756 22.8403C3.94903 22.7705 3.88505 22.6859 3.83931 22.5913C3.79318 22.4969 3.76615 22.3943 3.75977 22.2894C3.75339 22.1845 3.76779 22.0794 3.80213 21.9801C3.83647 21.8808 3.89008 21.7893 3.95988 21.7108C4.02969 21.6322 4.11431 21.5682 4.20891 21.5225L10.4057 18.5049C10.7081 18.3577 11.0473 18.2793 11.3833 18.2793H18.2489C19.4681 18.2793 20.4857 19.1545 20.6681 20.3593C20.8505 21.5609 20.1417 22.6969 18.9817 23.0601L18.3449 23.2601L19.3817 23.5881C19.6233 23.6649 19.8841 23.6297 20.0969 23.4921L25.4905 19.9977C26.6105 19.2713 28.1161 19.5897 28.8473 20.7049C29.5065 21.7097 29.3241 23.0681 28.4217 23.8633C28.4137 23.8697 28.4057 23.8761 28.3977 23.8841L22.3033 28.8489C21.4313 29.5561 20.3449 29.9273 19.2473 29.9273Z" fill="#D64457"/>
</svg>
