<svg xmlns="http://www.w3.org/2000/svg" width="21" height="20" viewBox="0 0 21 20" fill="none">
  <path
    d="M18.9076 5.0013V7.01797C18.9076 8.33463 18.0743 9.16797 16.7576 9.16797H13.9076V3.34297C13.9076 2.41797 14.6659 1.66797 15.5909 1.66797C16.4993 1.6763 17.3326 2.04297 17.9326 2.64297C18.5326 3.2513 18.9076 4.08464 18.9076 5.0013Z"
    stroke="white" stroke-width="1.5" stroke-miterlimit="10" stroke-linecap="round" stroke-linejoin="round" />
  <path
    d="M2.24084 5.83464V17.5013C2.24084 18.193 3.02418 18.5846 3.57418 18.168L4.99918 17.1013C5.33251 16.8513 5.79918 16.8846 6.09918 17.1846L7.48251 18.5763C7.80751 18.9013 8.34084 18.9013 8.66584 18.5763L10.0658 17.1763C10.3575 16.8846 10.8242 16.8513 11.1492 17.1013L12.5742 18.168C13.1242 18.5763 13.9075 18.1846 13.9075 17.5013V3.33464C13.9075 2.41797 14.6575 1.66797 15.5742 1.66797H6.40751H5.57418C3.07418 1.66797 2.24084 3.15964 2.24084 5.0013V5.83464Z"
    stroke="white" stroke-width="1.5" stroke-miterlimit="10" stroke-linecap="round" stroke-linejoin="round" />
  <path d="M5.78259 8.33203H10.3659" stroke="white" stroke-width="1.5" stroke-linecap="round" stroke-linejoin="round" />
</svg>