<svg width="20" height="20" viewBox="0 0 20 20" fill="none" xmlns="http://www.w3.org/2000/svg">
<path d="M7.22471 9.74938C7.87302 11.0748 8.94739 12.1443 10.2758 12.7866C10.3729 12.8326 10.4804 12.8526 10.5877 12.8445C10.6949 12.8363 10.7982 12.8004 10.8874 12.7403L12.8433 11.436C12.9298 11.3784 13.0293 11.3432 13.1328 11.3337C13.2364 11.3241 13.3407 11.3406 13.4362 11.3816L17.0954 12.9498C17.2197 13.0026 17.3234 13.0943 17.3911 13.2112C17.4587 13.3282 17.4865 13.4639 17.4702 13.5979C17.3546 14.503 16.913 15.3348 16.2282 15.9377C15.5434 16.5405 14.6624 16.8731 13.75 16.8732C10.9321 16.8732 8.22956 15.7538 6.23699 13.7612C4.24442 11.7686 3.125 9.06611 3.125 6.24818C3.12505 5.33582 3.45765 4.45476 4.06053 3.76996C4.66341 3.08517 5.49523 2.64361 6.40023 2.52795C6.53431 2.51173 6.67002 2.53951 6.78693 2.60712C6.90384 2.67474 6.99561 2.77851 7.04841 2.90281L8.61798 6.56515C8.65858 6.65987 8.67512 6.76317 8.66614 6.86584C8.65715 6.96851 8.62291 7.06737 8.56647 7.1536L7.26676 9.13952C7.2076 9.22886 7.17263 9.33201 7.16526 9.4389C7.15789 9.54579 7.17837 9.65277 7.22471 9.74938V9.74938Z" stroke="#8897AE" stroke-width="1.25" stroke-linecap="round" stroke-linejoin="round"/>
</svg>
