<svg width="32" height="32" viewBox="0 0 32 32" fill="none" xmlns="http://www.w3.org/2000/svg">
<g id="photograph">
<path id="Vector" d="M5.33301 21.3335L11.4477 15.2188C11.9477 14.7189 12.6259 14.4381 13.333 14.4381C14.0401 14.4381 14.7183 14.7189 15.2183 15.2188L21.333 21.3335M18.6663 18.6668L20.781 16.5522C21.2811 16.0522 21.9592 15.7714 22.6663 15.7714C23.3734 15.7714 24.0516 16.0522 24.5517 16.5522L26.6663 18.6668M18.6663 10.6668H18.6797M7.99967 26.6668H23.9997C24.7069 26.6668 25.3852 26.3859 25.8853 25.8858C26.3854 25.3857 26.6663 24.7074 26.6663 24.0002V8.00016C26.6663 7.29292 26.3854 6.61464 25.8853 6.11454C25.3852 5.61445 24.7069 5.3335 23.9997 5.3335H7.99967C7.29243 5.3335 6.61415 5.61445 6.11406 6.11454C5.61396 6.61464 5.33301 7.29292 5.33301 8.00016V24.0002C5.33301 24.7074 5.61396 25.3857 6.11406 25.8858C6.61415 26.3859 7.29243 26.6668 7.99967 26.6668Z" stroke="#9CA1AD" stroke-width="2" stroke-linecap="round" stroke-linejoin="round"/>
</g>
</svg>
