<svg width="20" height="20" viewBox="0 0 20 20" fill="none" xmlns="http://www.w3.org/2000/svg">
<path d="M6.04175 5.83366H13.9584V4.16699C13.9584 2.50033 13.3334 1.66699 11.4584 1.66699H8.54175C6.66675 1.66699 6.04175 2.50033 6.04175 4.16699V5.83366Z" stroke="#0070F4" stroke-width="1.5" stroke-miterlimit="10" stroke-linecap="round" stroke-linejoin="round"/>
<path d="M13.3334 12.5V15.8333C13.3334 17.5 12.5001 18.3333 10.8334 18.3333H9.16675C7.50008 18.3333 6.66675 17.5 6.66675 15.8333V12.5H13.3334Z" stroke="#0070F4" stroke-width="1.5" stroke-miterlimit="10" stroke-linecap="round" stroke-linejoin="round"/>
<path d="M17.5 8.33301V12.4997C17.5 14.1663 16.6667 14.9997 15 14.9997H13.3333V12.4997H6.66667V14.9997H5C3.33333 14.9997 2.5 14.1663 2.5 12.4997V8.33301C2.5 6.66634 3.33333 5.83301 5 5.83301H15C16.6667 5.83301 17.5 6.66634 17.5 8.33301Z" stroke="#0070F4" stroke-width="1.5" stroke-miterlimit="10" stroke-linecap="round" stroke-linejoin="round"/>
<path d="M14.1666 12.5H13.1583H5.83325" stroke="#0070F4" stroke-width="1.5" stroke-miterlimit="10" stroke-linecap="round" stroke-linejoin="round"/>
<path d="M5.83325 9.16699H8.33325" stroke="#0070F4" stroke-width="1.5" stroke-miterlimit="10" stroke-linecap="round" stroke-linejoin="round"/>
</svg>
