<svg width="33" height="33" viewBox="0 0 33 33" fill="none" xmlns="http://www.w3.org/2000/svg">
<path d="M5.81853 20.0473L3.79188 18.0206C2.96521 17.1939 2.96521 15.8339 3.79188 15.0072L5.81853 12.9806C6.16519 12.6339 6.4452 11.9539 6.4452 11.4739V8.60718C6.4452 7.43385 7.4052 6.47388 8.57854 6.47388H11.4452C11.9252 6.47388 12.6052 6.19392 12.9519 5.84725L14.9785 3.82056C15.8052 2.99389 17.1652 2.99389 17.9919 3.82056L20.0186 5.84725C20.3652 6.19392 21.0452 6.47388 21.5252 6.47388H24.3919C25.5652 6.47388 26.5252 7.43385 26.5252 8.60718V11.4739C26.5252 11.9539 26.8052 12.6339 27.1519 12.9806L29.1786 15.0072C30.0052 15.8339 30.0052 17.1939 29.1786 18.0206L27.1519 20.0473C26.8052 20.394 26.5252 21.074 26.5252 21.554V24.4205C26.5252 25.5938 25.5652 26.554 24.3919 26.554H21.5252C21.0452 26.554 20.3652 26.8339 20.0186 27.1806L17.9919 29.2073C17.1652 30.0339 15.8052 30.0339 14.9785 29.2073L12.9519 27.1806C12.6052 26.8339 11.9252 26.554 11.4452 26.554H8.57854C7.4052 26.554 6.4452 25.5938 6.4452 24.4205V21.554C6.4452 21.0606 6.16519 20.3806 5.81853 20.0473Z" stroke="#D64457" stroke-width="1.5" stroke-linecap="round" stroke-linejoin="round"/>
<path d="M12.5 20.5L20.5 12.5" stroke="#D64457" stroke-width="1.5" stroke-linecap="round" stroke-linejoin="round"/>
<path d="M19.8261 19.8333H19.8381" stroke="#D64457" stroke-width="2" stroke-linecap="round" stroke-linejoin="round"/>
<path d="M13.1593 13.1667H13.1713" stroke="#D64457" stroke-width="2" stroke-linecap="round" stroke-linejoin="round"/>
</svg>
