<svg width="20" height="20" viewBox="0 0 20 20" fill="none" xmlns="http://www.w3.org/2000/svg">
  <path
    d="M8.95827 3.86631L5.2666 2.04131C3.27494 1.06631 1.6416 2.05797 1.6416 4.24131V16.608C1.6416 17.558 2.43327 18.333 3.39993 18.333H9.58327C10.0416 18.333 10.4166 17.958 10.4166 17.4996V6.17464C10.4166 5.29964 9.75827 4.25797 8.95827 3.86631ZM7.47493 11.458H4.58327C4.2416 11.458 3.95827 11.1746 3.95827 10.833C3.95827 10.4913 4.2416 10.208 4.58327 10.208H7.47493C7.8166 10.208 8.09993 10.4913 8.09993 10.833C8.09993 11.1746 7.82493 11.458 7.47493 11.458ZM7.47493 8.12464H4.58327C4.2416 8.12464 3.95827 7.84131 3.95827 7.49964C3.95827 7.15797 4.2416 6.87464 4.58327 6.87464H7.47493C7.8166 6.87464 8.09993 7.15797 8.09993 7.49964C8.09993 7.84131 7.82493 8.12464 7.47493 8.12464Z"
    fill="#C2C2C2" />
  <path
    d="M18.3332 15.0332V16.2499C18.3332 17.3999 17.3998 18.3332 16.2498 18.3332H12.4748C12.0248 18.3332 11.6665 17.9749 11.6665 17.5249V15.7249C12.5582 15.8332 13.4998 15.5749 14.1748 15.0332C14.7415 15.4915 15.4665 15.7665 16.2582 15.7665C17.0332 15.7665 17.7582 15.4915 18.3332 15.0332Z"
    fill="#C2C2C2" />
  <path
    d="M18.3332 12.5418V12.5501C18.2665 13.6418 17.3748 14.5168 16.2582 14.5168C15.0998 14.5168 14.1748 13.5751 14.1748 12.4334C14.1748 13.7084 12.9998 14.7334 11.6665 14.4751V10.0001C11.6665 9.46677 12.1582 9.06677 12.6832 9.18343L14.1748 9.51677L14.5748 9.60843L16.2748 9.99177C16.6832 10.0751 17.0582 10.2168 17.3832 10.4251C17.3832 10.4334 17.3915 10.4334 17.3915 10.4334C17.4748 10.4918 17.5582 10.5584 17.6332 10.6334C18.0165 11.0168 18.2665 11.5751 18.3248 12.3918C18.3248 12.4418 18.3332 12.4918 18.3332 12.5418Z"
    fill="#C2C2C2" />
</svg>