<svg xmlns="http://www.w3.org/2000/svg" width="32" height="32" viewBox="0 0 32 32" fill="none">
  <path
    d="M22.6665 3.23828H9.33317C5.33317 3.23828 2.6665 5.90495 2.6665 9.90495V17.9049C2.6665 21.9049 5.33317 24.5716 9.33317 24.5716V27.4116C9.33317 28.4783 10.5198 29.1183 11.3998 28.5183L17.3332 24.5716H22.6665C26.6665 24.5716 29.3332 21.9049 29.3332 17.9049V9.90495C29.3332 5.90495 26.6665 3.23828 22.6665 3.23828ZM15.9998 19.4649C15.4398 19.4649 14.9998 19.0116 14.9998 18.4649C14.9998 17.9183 15.4398 17.4649 15.9998 17.4649C16.5598 17.4649 16.9998 17.9183 16.9998 18.4649C16.9998 19.0116 16.5598 19.4649 15.9998 19.4649ZM17.6798 13.9316C17.1598 14.2783 16.9998 14.5049 16.9998 14.8783V15.1583C16.9998 15.7049 16.5465 16.1583 15.9998 16.1583C15.4532 16.1583 14.9998 15.7049 14.9998 15.1583V14.8783C14.9998 13.3316 16.1332 12.5716 16.5598 12.2783C17.0532 11.9449 17.2132 11.7183 17.2132 11.3716C17.2132 10.7049 16.6665 10.1583 15.9998 10.1583C15.3332 10.1583 14.7865 10.7049 14.7865 11.3716C14.7865 11.9183 14.3332 12.3716 13.7865 12.3716C13.2398 12.3716 12.7865 11.9183 12.7865 11.3716C12.7865 9.59828 14.2265 8.15828 15.9998 8.15828C17.7732 8.15828 19.2132 9.59828 19.2132 11.3716C19.2132 12.8916 18.0932 13.6516 17.6798 13.9316Z"
    fill="#EE0033" />
</svg>