<svg xmlns="http://www.w3.org/2000/svg" width="21" height="20" viewBox="0 0 21 20" fill="none">
  <path
    d="M19.0276 5.0013V7.01797C19.0276 8.33463 18.1943 9.16797 16.8776 9.16797H14.0276V3.34297C14.0276 2.41797 14.7859 1.66797 15.7109 1.66797C16.6193 1.6763 17.4526 2.04297 18.0526 2.64297C18.6526 3.2513 19.0276 4.08464 19.0276 5.0013Z"
    stroke="white" stroke-width="1.5" stroke-miterlimit="10" stroke-linecap="round" stroke-linejoin="round" />
  <path
    d="M2.36084 5.83464V17.5013C2.36084 18.193 3.14418 18.5846 3.69418 18.168L5.11917 17.1013C5.4525 16.8513 5.91918 16.8846 6.21918 17.1846L7.6025 18.5763C7.9275 18.9013 8.46085 18.9013 8.78585 18.5763L10.1858 17.1763C10.4775 16.8846 10.9442 16.8513 11.2692 17.1013L12.6942 18.168C13.2442 18.5763 14.0275 18.1846 14.0275 17.5013V3.33464C14.0275 2.41797 14.7775 1.66797 15.6942 1.66797H6.52751H5.69417C3.19417 1.66797 2.36084 3.15964 2.36084 5.0013V5.83464Z"
    stroke="white" stroke-width="1.5" stroke-miterlimit="10" stroke-linecap="round" stroke-linejoin="round" />
  <path d="M5.90259 8.33203H10.4859" stroke="white" stroke-width="1.5" stroke-linecap="round" stroke-linejoin="round" />
  <path d="M8.19421 10.6263V6.04297" stroke="white" stroke-width="1.5" stroke-linecap="round" stroke-linejoin="round" />
</svg>