<svg xmlns="http://www.w3.org/2000/svg" width="28" height="28" viewBox="0 0 28 28" fill="none">
  <g clip-path="url(#clip0_535_25002)">
    <path
      d="M22.8667 17.2648V16.3315C22.8667 14.7448 21.6533 13.5315 20.0667 13.5315H14.4667V10.7315C17.08 10.4515 19.1333 8.30484 19.1333 5.59818C19.1333 2.79818 16.8 0.464844 14 0.464844C11.2 0.464844 8.86667 2.79818 8.86667 5.59818C8.86667 8.30484 10.92 10.4515 13.5333 10.7315V13.5315H7.93334C6.34667 13.5315 5.13334 14.7448 5.13334 16.3315V17.2648C2.52001 17.5448 0.466675 19.6915 0.466675 22.3982C0.466675 25.1982 2.80001 27.5315 5.60001 27.5315C8.40001 27.5315 10.7333 25.1982 10.7333 22.3982C10.7333 19.6915 8.68001 17.5448 6.06667 17.2648V16.3315C6.06667 15.3048 6.90667 14.4648 7.93334 14.4648H20.0667C21.0933 14.4648 21.9333 15.3048 21.9333 16.3315V17.2648C19.32 17.5448 17.2667 19.6915 17.2667 22.3982C17.2667 25.1982 19.6 27.5315 22.4 27.5315C25.2 27.5315 27.5333 25.1982 27.5333 22.3982C27.5333 19.6915 25.48 17.5448 22.8667 17.2648Z"
      fill="#D64457" />
  </g>
  <defs>
    <clipPath id="clip0_535_25002">
      <rect width="28" height="28" fill="white" />
    </clipPath>
  </defs>
</svg>