<svg xmlns="http://www.w3.org/2000/svg" width="20" height="20" viewBox="0 0 20 20" fill="none">
  <path
    d="M13.5417 17.5V13.5292C13.5415 13.355 13.507 13.1826 13.4401 13.0219C13.3732 12.8611 13.2753 12.7151 13.1519 12.5922C13.0285 12.4692 12.8821 12.3719 12.7211 12.3056C12.5601 12.2393 12.3876 12.2054 12.2134 12.2058H7.78675C7.61261 12.2054 7.44009 12.2393 7.27905 12.3056C7.11802 12.3719 6.97163 12.4692 6.84827 12.5922C6.7249 12.7151 6.62696 12.8611 6.56007 13.0219C6.49318 13.1826 6.45863 13.355 6.45841 13.5292V17.5M13.5417 2.7375V4.70584C13.5415 4.87998 13.507 5.05237 13.4401 5.21315C13.3732 5.37393 13.2753 5.51995 13.1519 5.64286C13.0285 5.76576 12.8821 5.86314 12.7211 5.92943C12.5601 5.99572 12.3876 6.02961 12.2134 6.02917H7.78675C7.61261 6.02961 7.44009 5.99572 7.27905 5.92943C7.11802 5.86314 6.97163 5.76576 6.84827 5.64286C6.7249 5.51995 6.62696 5.37393 6.56007 5.21315C6.49318 5.05237 6.45863 4.87998 6.45841 4.70584V2.5M13.5417 2.7375C13.1962 2.58089 12.8211 2.49992 12.4417 2.5H6.45841M13.5417 2.7375C13.8284 2.8675 14.0926 3.04917 14.3201 3.275L16.3051 5.25417C16.5516 5.49944 16.7472 5.79095 16.8808 6.11199C17.0143 6.43304 17.0832 6.77729 17.0834 7.125V14.8517C17.083 15.2 17.0139 15.5449 16.8801 15.8666C16.7464 16.1882 16.5505 16.4804 16.3038 16.7263C16.0571 16.9722 15.7643 17.1672 15.4423 17.2999C15.1202 17.4327 14.7751 17.5007 14.4267 17.5H5.57342C5.22512 17.5007 4.88011 17.4327 4.55809 17.3C4.23607 17.1673 3.94335 16.9724 3.69664 16.7266C3.44994 16.4807 3.25408 16.1887 3.12027 15.8671C2.98645 15.5456 2.91729 15.2008 2.91675 14.8525V5.14667C2.9174 4.79845 2.98664 4.45377 3.12051 4.1323C3.25437 3.81084 3.45024 3.51889 3.69694 3.27312C3.94363 3.02736 4.23632 2.83259 4.55828 2.69994C4.88025 2.56728 5.22519 2.49935 5.57342 2.5H6.45841"
    stroke="white" stroke-width="1.5" stroke-linecap="round" stroke-linejoin="round" />
</svg>