<svg width="45" height="45" viewBox="0 0 45 45" fill="none" xmlns="http://www.w3.org/2000/svg">
<rect width="45" height="45" rx="16" fill="url(#paint0_linear_510_25220)"/>
<path d="M34.0417 20.4384H29.9476C26.5901 20.4384 23.8559 17.7043 23.8559 14.3468V10.2526C23.8559 9.47344 23.2184 8.83594 22.4392 8.83594H16.4326C12.0692 8.83594 8.54175 11.6693 8.54175 16.7268V29.2784C8.54175 34.3359 12.0692 37.1693 16.4326 37.1693H27.5676C31.9309 37.1693 35.4584 34.3359 35.4584 29.2784V21.8551C35.4584 21.0759 34.8209 20.4384 34.0417 20.4384ZM21.3342 25.1701C21.1217 25.3826 20.8526 25.4818 20.5834 25.4818C20.3142 25.4818 20.0451 25.3826 19.8326 25.1701L18.8126 24.1501V30.0859C18.8126 30.6668 18.3309 31.1484 17.7501 31.1484C17.1692 31.1484 16.6876 30.6668 16.6876 30.0859V24.1501L15.6676 25.1701C15.2567 25.5809 14.5767 25.5809 14.1659 25.1701C13.7551 24.7593 13.7551 24.0793 14.1659 23.6684L16.9992 20.8351C17.0984 20.7501 17.1976 20.6793 17.3109 20.6226C17.3392 20.6084 17.3817 20.5943 17.4101 20.5801C17.4951 20.5518 17.5801 20.5376 17.6792 20.5234C17.7217 20.5234 17.7501 20.5234 17.7926 20.5234C17.9059 20.5234 18.0192 20.5518 18.1326 20.5943C18.1467 20.5943 18.1467 20.5943 18.1609 20.5943C18.2742 20.6368 18.3876 20.7218 18.4726 20.8068C18.4867 20.8209 18.5009 20.8209 18.5009 20.8351L21.3342 23.6684C21.7451 24.0793 21.7451 24.7593 21.3342 25.1701Z" fill="url(#paint1_linear_510_25220)"/>
<path d="M29.6925 18.4776C31.0383 18.4918 32.9083 18.4918 34.5091 18.4918C35.3166 18.4918 35.7416 17.5426 35.175 16.9759C33.135 14.9218 29.48 11.2243 27.3833 9.12761C26.8025 8.54678 25.7966 8.94344 25.7966 9.75094V14.6951C25.7966 16.7634 27.5533 18.4776 29.6925 18.4776Z" fill="url(#paint2_linear_510_25220)"/>
<defs>
<linearGradient id="paint0_linear_510_25220" x1="22.5" y1="0" x2="22.5" y2="45" gradientUnits="userSpaceOnUse">
<stop stop-color="#EE0033"/>
<stop offset="1" stop-color="#BB0033"/>
</linearGradient>
<linearGradient id="paint1_linear_510_25220" x1="22.0001" y1="8.83594" x2="22.0001" y2="37.1693" gradientUnits="userSpaceOnUse">
<stop stop-color="white"/>
<stop offset="1" stop-color="white" stop-opacity="0.8"/>
</linearGradient>
<linearGradient id="paint2_linear_510_25220" x1="30.6155" y1="8.85156" x2="30.6155" y2="18.4918" gradientUnits="userSpaceOnUse">
<stop stop-color="white"/>
<stop offset="1" stop-color="white" stop-opacity="0.8"/>
</linearGradient>
</defs>
</svg>
