<svg xmlns="http://www.w3.org/2000/svg" width="28" height="28" viewBox="0 0 28 28" fill="none">
  <g clip-path="url(#clip0_534_25442)">
    <path
      d="M0 11.375C0 13.0036 1.1177 14.3606 2.625 14.752V26.25H0.875C0.393039 26.25 0 26.6413 0 27.125C0 27.6087 0.393094 28 0.875 28H27.125C27.6104 28 28 27.6087 28 27.125C28 26.6413 27.6104 26.25 27.125 26.25H25.375V14.752C26.8823 14.3606 28 13.0036 28 11.375V10.5H0V11.375ZM17.5 14.875C19.4346 14.875 21 13.3079 21 11.375C21 13.0036 22.1177 14.3606 23.625 14.752V26.25H10.5V14.875C12.4346 14.875 14 13.3079 14 11.375C14 13.3079 15.5689 14.875 17.5 14.875ZM9.625 14.752V26.25H4.375V14.752C5.88235 14.3606 7 13.0036 7 11.375C7 13.0036 8.1177 14.3606 9.625 14.752ZM24.5 2.625H3.5L0 9.625H28L24.5 2.625ZM7.39309 4.56985L5.64309 8.06985C5.56445 8.22369 5.41067 8.31256 5.25 8.31256C5.18229 8.31297 5.11548 8.29714 5.05515 8.2664C4.83979 8.15872 4.75092 7.89556 4.8603 7.6802L6.6103 4.1802C6.71967 3.96484 6.98113 3.87773 7.19649 3.98366C7.4136 4.09134 7.49902 4.35449 7.39309 4.56985ZM10.8931 4.56985L9.14309 8.06985C9.06445 8.22369 8.91067 8.31256 8.75 8.31256C8.68229 8.31297 8.61548 8.29714 8.55515 8.2664C8.33979 8.15872 8.25092 7.89556 8.3603 7.6802L10.1103 4.1802C10.2197 3.96484 10.4829 3.87773 10.6965 3.98366C10.9136 4.09134 10.999 4.35449 10.8931 4.56985ZM14.4375 7.875C14.4375 8.1177 14.2427 8.3125 14 8.3125C13.759 8.3125 13.5625 8.11765 13.5625 7.875V4.375C13.5625 4.1323 13.759 3.9375 14 3.9375C14.2427 3.9375 14.4375 4.13235 14.4375 4.375V7.875ZM19.4619 8.25781C19.3936 8.29544 19.3218 8.3125 19.25 8.3125C19.0962 8.3125 18.9458 8.23047 18.8672 8.08522L16.9531 4.58522C16.8369 4.3733 16.9155 4.1067 17.1275 3.99219C17.336 3.87598 17.606 3.95117 17.7222 4.16478L19.6363 7.66478C19.749 7.8767 19.6738 8.1433 19.4619 8.25781ZM22.9448 8.26634C22.8833 8.29883 22.8184 8.3125 22.75 8.3125C22.6688 8.31269 22.5892 8.29003 22.5203 8.24711C22.4514 8.20419 22.396 8.14274 22.3604 8.0698L20.6104 4.5698C20.501 4.35444 20.5898 4.09128 20.8051 3.9836C21.0171 3.87592 21.2837 3.96309 21.393 4.18015L23.143 7.68015C23.249 7.89551 23.1635 8.15872 22.9448 8.26634ZM7.4375 21.1333V19.1167C7.18113 18.9629 7 18.6963 7 18.3751C7 17.8914 7.39309 17.5001 7.875 17.5001C8.36035 17.5001 8.75 17.8914 8.75 18.3751C8.75 18.6963 8.57057 18.9629 8.3125 19.1167V21.1333C8.57057 21.2872 8.75 21.5538 8.75 21.8751C8.75 22.3587 8.36035 22.7501 7.875 22.7501C7.39304 22.7501 7 22.3587 7 21.8751C7 21.5537 7.18118 21.2871 7.4375 21.1333ZM3.5 0.875C3.5 0.391344 3.89309 0 4.375 0H23.625C24.1104 0 24.5 0.391344 24.5 0.875C24.5 1.35866 24.1104 1.75 23.625 1.75H4.375C3.89309 1.75 3.5 1.35866 3.5 0.875ZM15.3365 19.5593L14.7178 18.9406L17.1924 16.466L17.8111 17.0847L15.3365 19.5593ZM15.3365 22.0339L14.7178 21.4152L19.667 16.466L20.2857 17.0847L15.3365 22.0339ZM19.667 18.9407L20.2856 19.5594L17.811 22.034L17.1924 21.4153L19.667 18.9407Z"
      fill="#D64457" />
  </g>
  <defs>
    <clipPath id="clip0_534_25442">
      <rect width="28" height="28" fill="white" />
    </clipPath>
  </defs>
</svg>