<svg width="24" height="24" viewBox="0 0 24 24" fill="none" xmlns="http://www.w3.org/2000/svg">
<circle cx="12" cy="12" r="12" fill="#11A75C"/>
<path d="M9.49988 15.5015L6.58322 12.5848C6.50695 12.5076 6.41611 12.4464 6.31598 12.4045C6.21585 12.3627 6.10841 12.3411 5.99988 12.3411C5.89136 12.3411 5.78392 12.3627 5.68379 12.4045C5.58365 12.4464 5.49282 12.5076 5.41655 12.5848C5.33935 12.6611 5.27806 12.7519 5.23623 12.8521C5.19439 12.9522 5.17285 13.0597 5.17285 13.1682C5.17285 13.2767 5.19439 13.3841 5.23623 13.4843C5.27806 13.5844 5.33935 13.6752 5.41655 13.7515L8.90822 17.2432C9.23322 17.5682 9.75822 17.5682 10.0832 17.2432L18.9166 8.41818C18.9938 8.34191 19.055 8.25108 19.0969 8.15094C19.1387 8.05081 19.1603 7.94337 19.1603 7.83485C19.1603 7.72632 19.1387 7.61888 19.0969 7.51875C19.055 7.41862 18.9938 7.32778 18.9166 7.25151C18.8403 7.17431 18.7494 7.11302 18.6493 7.07119C18.5492 7.02935 18.4417 7.00781 18.3332 7.00781C18.2247 7.00781 18.1173 7.02935 18.0171 7.07119C17.917 7.11302 17.8262 7.17431 17.7499 7.25151L9.49988 15.5015Z" fill="white"/>
</svg>
