<svg width="33" height="32" viewBox="0 0 33 32" fill="none" xmlns="http://www.w3.org/2000/svg">
<path d="M9.43335 12.3467L16.5 16.44L23.5133 12.3733" stroke="#D64457" stroke-width="1.5" stroke-linecap="round" stroke-linejoin="round"/>
<path d="M16.5 23.6933V16.4266" stroke="#D64457" stroke-width="1.5" stroke-linecap="round" stroke-linejoin="round"/>
<path d="M14.8468 8.38668L10.5801 10.76C9.62008 11.2933 8.82007 12.64 8.82007 13.7467V18.2667C8.82007 19.3733 9.60674 20.72 10.5801 21.2533L14.8468 23.6267C15.7534 24.1333 17.2467 24.1333 18.1667 23.6267L22.4334 21.2533C23.3934 20.72 24.1934 19.3733 24.1934 18.2667V13.7333C24.1934 12.6267 23.4068 11.28 22.4334 10.7467L18.1667 8.37334C17.2467 7.86668 15.7534 7.86668 14.8468 8.38668Z" stroke="#D64457" stroke-width="1.5" stroke-linecap="round" stroke-linejoin="round"/>
<path d="M29.8333 20C29.8333 25.16 25.66 29.3333 20.5 29.3333L21.9 27" stroke="#D64457" stroke-width="1.5" stroke-linecap="round" stroke-linejoin="round"/>
<path d="M3.16675 12C3.16675 6.83996 7.34008 2.66663 12.5001 2.66663L11.1001 4.99996" stroke="#D64457" stroke-width="1.5" stroke-linecap="round" stroke-linejoin="round"/>
</svg>
