<svg width="44" height="45" viewBox="0 0 44 45" fill="none" xmlns="http://www.w3.org/2000/svg">
<path d="M29.6815 4.16675H14.3182C7.64484 4.16675 3.6665 8.14508 3.6665 14.8184V30.1817C3.6665 35.3334 6.0315 38.8717 10.1932 40.2101C11.4032 40.6317 12.7965 40.8334 14.3182 40.8334H29.6815C31.2032 40.8334 32.5965 40.6317 33.8065 40.2101C37.9682 38.8717 40.3332 35.3334 40.3332 30.1817V14.8184C40.3332 8.14508 36.3548 4.16675 29.6815 4.16675ZM37.5832 30.1817C37.5832 34.1051 36.0432 36.5801 32.9448 37.6067C31.1665 34.1051 26.9498 31.6117 21.9998 31.6117C17.0498 31.6117 12.8515 34.0867 11.0548 37.6067H11.0365C7.97484 36.6167 6.4165 34.1234 6.4165 30.2001V14.8184C6.4165 9.64841 9.14817 6.91675 14.3182 6.91675H29.6815C34.8515 6.91675 37.5832 9.64841 37.5832 14.8184V30.1817Z" fill="#C7C9D9"/>
<path d="M21.9999 15.1667C18.3699 15.1667 15.4365 18.1001 15.4365 21.7301C15.4365 25.3601 18.3699 28.3117 21.9999 28.3117C25.6299 28.3117 28.5632 25.3601 28.5632 21.7301C28.5632 18.1001 25.6299 15.1667 21.9999 15.1667Z" fill="#C7C9D9"/>
</svg>
