<svg width="33" height="32" viewBox="0 0 33 32" fill="none" xmlns="http://www.w3.org/2000/svg">
<path d="M16.66 17.04C16.5667 17.0266 16.4467 17.0266 16.34 17.04C13.9934 16.96 12.1267 15.04 12.1267 12.68C12.1267 10.2666 14.0734 8.30664 16.5 8.30664C18.9134 8.30664 20.8734 10.2666 20.8734 12.68C20.86 15.04 19.0067 16.96 16.66 17.04Z" stroke="#D64457" stroke-width="1.5" stroke-linecap="round" stroke-linejoin="round"/>
<path d="M25.4868 25.84C23.1134 28.0133 19.9668 29.3333 16.5001 29.3333C13.0334 29.3333 9.88676 28.0133 7.51343 25.84C7.64676 24.5866 8.44676 23.36 9.87343 22.4C13.5268 19.9733 19.5001 19.9733 23.1268 22.4C24.5534 23.36 25.3534 24.5866 25.4868 25.84Z" stroke="#D64457" stroke-width="1.5" stroke-linecap="round" stroke-linejoin="round"/>
<path d="M16.5001 29.3333C23.8639 29.3333 29.8334 23.3638 29.8334 16C29.8334 8.63616 23.8639 2.66663 16.5001 2.66663C9.13628 2.66663 3.16675 8.63616 3.16675 16C3.16675 23.3638 9.13628 29.3333 16.5001 29.3333Z" stroke="#D64457" stroke-width="1.5" stroke-linecap="round" stroke-linejoin="round"/>
</svg>
