<svg width="95" height="60" viewBox="0 0 95 60" fill="none" xmlns="http://www.w3.org/2000/svg">
<path d="M30.0174 51.6949L30.8187 49.3203H18.5405V51.6949H18.5461L18.5405 53.5324L18.5391 53.8806V54.3295V60.0002H30.0146L30.8173 57.6214H21.4744L21.4758 55.707H29.3993L30.1349 53.5324H21.4772L21.4814 51.6949H30.0174Z" fill="white"/>
<path d="M62.7561 49.3125H59.8194L59.8152 53.533L51.9112 53.5302L51.9224 49.3125H48.9857L48.9731 54.3259H48.9829L48.9843 59.9965H51.9196L51.9182 55.9117H59.8152L59.818 59.9965H62.7533L62.7561 49.3125Z" fill="white"/>
<path d="M7.90675 57.1941L3.02482 49.3125H0.00139873L0 59.9951H2.8598L2.8612 53.7903L6.56565 59.8343H9.10102L12.7999 53.7903L12.7985 59.9951H15.7352L15.738 49.3125H12.8013L7.90675 57.1941Z" fill="white"/>
<path d="M75.0358 49.3125H71.7746L65.3264 59.9951H75.893L74.7141 58.022H69.8588L73.3618 52.0884L78.0732 59.9951H81.4798L75.0358 49.3125Z" fill="white"/>
<path d="M46.8671 52.5297C46.8671 49.7482 44.5178 49.3203 43.0172 49.3203H34.5078L33.7023 51.6963H36.6642V51.6949H42.7837C43.1459 51.6949 43.8829 51.7186 43.8829 52.6192C43.8829 53.5296 43.1865 53.5212 42.739 53.5212H36.6725V53.5184H33.7023L33.7009 60.0016H36.646V55.893H43.0172C44.4339 55.8916 46.8671 55.8622 46.8671 52.5297Z" fill="white"/>
<path d="M81.0897 53.517L88.707 60.0002H93.1358L88.2036 55.8916H90.4061C91.8241 55.8916 94.256 55.8608 94.256 52.5297C94.256 49.7482 91.9066 49.3203 90.4075 49.3203H81.898L81.0925 51.6963H84.0544V51.6949H90.1726C90.5348 51.6949 91.2717 51.7186 91.2717 52.6192C91.2717 53.5296 90.5753 53.5212 90.1278 53.5212H84.06V53.5184H81.0897V53.517Z" fill="white"/>
<path d="M79.4341 19.6784C79.4845 20.0881 79.511 20.5034 79.511 20.9202C79.511 21.4865 79.4635 22.0473 79.3698 22.5997C78.1713 29.7457 69.4031 35.6932 57.5626 37.9489C56.2522 38.1992 54.9042 38.4034 53.5267 38.5586C53.4917 38.5628 53.4596 38.567 53.426 38.5698C52.1073 38.7167 50.7606 38.8201 49.3901 38.8747C48.607 38.9054 47.8155 38.9222 47.0184 38.9222C46.1527 38.9222 45.2941 38.9026 44.4453 38.8663V36.3966V33.4655V22.5997V19.6784V19.6518V15.525V8.37481V7.00714V5.44369C43.2832 5.50662 42.1378 5.6115 41.0121 5.75834L40.408 6.53586L38.3117 9.23904L36.3721 11.7394L32.1726 17.1528L28.2318 13.6735L25.6559 11.3996C24.7245 12.0918 23.8994 12.826 23.1848 13.5994C22.8408 13.9713 22.5234 14.3517 22.2297 14.7419C21.0494 16.3151 20.3376 17.9709 20.1069 19.6798C20.0509 20.0909 20.023 20.5048 20.023 20.9216C20.023 21.4865 20.0747 22.0473 20.1768 22.6011C20.4635 24.1547 21.1501 25.6623 22.2297 27.1013C22.9275 28.0312 23.7736 28.9136 24.7609 29.7387C25.6223 30.4589 26.59 31.1385 27.6626 31.7706L30.5308 29.6981C29.4414 29.08 28.4667 28.4004 27.6235 27.6704C25.8852 26.1657 24.7105 24.4442 24.2616 22.5997C24.1274 22.0501 24.0589 21.4893 24.0589 20.9202C24.0589 20.5006 24.0966 20.0867 24.1693 19.6784C24.4001 18.3792 24.9902 17.1388 25.8852 15.9851L30.0693 19.6784L32.7655 22.0585L34.6129 19.6784L36.3693 17.4143L40.4052 12.2107V18.4393V19.6784V22.5661L40.359 22.5997H40.4052V33.011V35.9995V38.5474V41.5051C41.7337 41.6436 43.0804 41.7401 44.4411 41.7932C45.2941 41.8282 46.1513 41.8449 47.0142 41.8449C47.8085 41.8449 48.6 41.831 49.3859 41.8016C50.7466 41.7513 52.0947 41.6604 53.4218 41.5261C53.4554 41.5233 53.4889 41.5191 53.5225 41.5163C54.8902 41.3765 56.2369 41.1933 57.5584 40.9667C63.1927 40.0004 68.3613 38.2594 72.6573 35.8359C76.0485 33.9242 78.7153 31.6895 80.5864 29.1933C82.1638 27.0901 83.1148 24.8805 83.428 22.6011C83.505 22.0459 83.5427 21.4851 83.5427 20.9216C83.5427 20.5048 83.5217 20.0923 83.4798 19.6798C83.2351 17.2451 82.2631 14.8859 80.585 12.6484C78.7125 10.1536 76.0457 7.91752 72.6559 6.00586C68.3599 3.58377 63.1913 1.84132 57.557 0.875V3.89003C69.6437 6.19325 78.5279 12.3394 79.4341 19.6784Z" fill="white"/>
<path d="M21.7458 36.0447C25.9397 38.3451 30.9377 40.0092 36.3707 40.9504V37.9325C31.9474 37.0809 27.9549 35.7132 24.6308 33.9596C23.5191 33.3723 22.48 32.743 21.5263 32.0745C17.7323 29.4203 15.2599 26.1605 14.6642 22.6029C14.5705 22.0505 14.5229 21.4898 14.5229 20.9234C14.5229 20.5067 14.5495 20.0927 14.5998 19.6816C15.0012 16.4302 16.9674 13.4138 20.0831 10.8616C20.9208 10.1764 21.8423 9.52474 22.8366 8.91083C26.4767 6.66214 31.1195 4.92389 36.3707 3.91282C37.6796 3.6611 39.0277 3.45274 40.4066 3.29471C41.2974 3.19263 42.1993 3.11012 43.1125 3.04859C43.5544 3.01922 43.9963 2.99405 44.4438 2.97587C45.2927 2.93951 46.1513 2.91993 47.017 2.91993C47.2169 2.91993 47.4155 2.92133 47.6141 2.92413C48.2098 2.92832 48.8014 2.9451 49.3887 2.96748V36.4096C50.7578 36.3425 52.1059 36.2153 53.4246 36.0321V22.6029H73.8557C73.9592 22.0491 74.0096 21.4884 74.0096 20.9234C74.0096 20.508 73.9816 20.0941 73.9256 19.6816C73.6949 17.9727 72.9831 16.3169 71.8028 14.7437C70.4114 12.8894 68.4312 11.2294 65.9168 9.81002C63.4681 8.42976 60.6377 7.34878 57.5612 6.59922V9.70933C57.7178 9.75408 57.8716 9.79883 58.0268 9.84498C64.5156 11.8042 69.108 15.4373 69.8632 19.6802H53.4246V0.318843C52.2429 0.199976 51.0444 0.113274 49.8348 0.0615315C49.6852 0.0545393 49.5369 0.0489449 49.3887 0.0433511C48.6028 0.013984 47.8113 0 47.017 0C46.4981 0 45.9807 0.00559365 45.4661 0.019578H45.4647C45.1221 0.0265702 44.7837 0.0377571 44.4438 0.0517414C43.0818 0.104882 41.7351 0.201374 40.4066 0.339819C39.0389 0.482459 37.6922 0.667054 36.3707 0.896397C30.7755 1.86551 25.6419 3.60097 21.3725 6.00908C20.9991 6.22024 20.6355 6.4342 20.2789 6.65375C19.2804 7.26627 18.3518 7.90815 17.4974 8.5794C15.8864 9.84079 14.5299 11.2015 13.4433 12.6516C11.7652 14.8891 10.7947 17.2483 10.55 19.683C10.5094 20.0941 10.4884 20.508 10.4884 20.9248C10.4884 21.4897 10.5276 22.0491 10.6031 22.6043C10.9164 24.8838 11.8673 27.0947 13.4447 29.1965C14.7872 30.9865 16.5381 32.6423 18.6721 34.14C19.5139 34.7315 20.4159 35.2979 21.3739 35.8391C21.4955 35.9076 21.62 35.9761 21.7458 36.0447Z" fill="white"/>
</svg>
